<?xml version="1.0" encoding="UTF-8"?>
<svg width="24px" height="24px" viewBox="0 0 24 24" version="1.1" xmlns="http://www.w3.org/2000/svg" xmlns:xlink="http://www.w3.org/1999/xlink">
    <title>icons/vitamix/business/award-fill</title>
    <g id="icons/vitamix/business/award-fill" stroke="none" stroke-width="1" fill="none" fill-rule="evenodd">
        <polygon id="path" points="0 0 24 0 24 24 0 24"></polygon>
        <path d="M17,15.245 L17,22.117 C17.0000378,22.2971031 16.9032115,22.4633095 16.7465208,22.5521078 C16.5898301,22.6409061 16.3974907,22.638573 16.243,22.546 L12,20 L7.757,22.546 C7.60235587,22.6386655 7.40980116,22.6409053 7.25304341,22.5518619 C7.09628567,22.4628186 6.99960135,22.2962819 7,22.116 L7,15.246 C4.34826975,13.1229167 3.32645624,9.55669509 4.45149074,6.35147223 C5.57652525,3.14624937 8.60306665,1.001002 12,1.001002 C15.3969334,1.001002 18.4234748,3.14624937 19.5485093,6.35147223 C20.6735438,9.55669509 19.6517302,13.1229167 17,15.246 L17,15.245 Z M12,15 C15.3137085,15 18,12.3137085 18,9 C18,5.6862915 15.3137085,3 12,3 C8.6862915,3 6,5.6862915 6,9 C6,12.3137085 8.6862915,15 12,15 L12,15 Z M12,13 C9.790861,13 8,11.209139 8,9 C8,6.790861 9.790861,5 12,5 C14.209139,5 16,6.790861 16,9 C16,11.209139 14.209139,13 12,13 Z" id="shape" fill="#000000" fill-rule="nonzero"></path>
    </g>
</svg>