<?xml version="1.0" encoding="UTF-8"?>
<svg width="24px" height="24px" viewBox="0 0 24 24" version="1.1" xmlns="http://www.w3.org/2000/svg" xmlns:xlink="http://www.w3.org/1999/xlink">
    <title>icons/vitamix/business/calendar-line</title>
    <g id="icons/vitamix/business/calendar-line" stroke="none" stroke-width="1" fill="none" fill-rule="evenodd">
        <rect id="path" fill-rule="nonzero" x="0" y="0" width="24" height="24"></rect>
        <path d="M17,4 L21,4 C21.5522847,4 22,4.44771525 22,5 L22,21 C22,21.5522847 21.5522847,22 21,22 L3,22 C2.44771525,22 2,21.5522847 2,21 L2,5 C2,4.44771525 2.44771525,4 3,4 L7,4 L7,2 L9,2 L9,4 L15,4 L15,2 L17,2 L17,4 Z M15,6 L9,6 L9,8 L7,8 L7,6 L4,6 L4,10 L20,10 L20,6 L17,6 L17,8 L15,8 L15,6 Z M20,12 L4,12 L4,20 L20,20 L20,12 Z" id="shape" fill="#001018" fill-rule="nonzero"></path>
    </g>
</svg>