<?xml version="1.0" encoding="UTF-8"?>
<svg width="24px" height="24px" viewBox="0 0 24 24" version="1.1" xmlns="http://www.w3.org/2000/svg" xmlns:xlink="http://www.w3.org/1999/xlink">
    <title>icons/vitamix/business/calendar-2-fill</title>
    <g id="icons/vitamix/business/calendar-2-fill" stroke="none" stroke-width="1" fill="none" fill-rule="evenodd">
        <rect id="path" fill-rule="nonzero" x="0" y="0" width="24" height="24"></rect>
        <path d="M17,4 L21,4 C21.5522847,4 22,4.44771525 22,5 L22,21 C22,21.5522847 21.5522847,22 21,22 L3,22 C2.44771525,22 2,21.5522847 2,21 L2,5 C2,4.44771525 2.44771525,4 3,4 L7,4 L7,2 L9,2 L9,4 L15,4 L15,2 L17,2 L17,4 Z M6,11 L8,11 L8,13 L6,13 L6,11 Z M6,15 L8,15 L8,17 L6,17 L6,15 Z M11,11 L13,11 L13,13 L11,13 L11,11 Z M11,15 L13,15 L13,17 L11,17 L11,15 Z M16,11 L18,11 L18,13 L16,13 L16,11 Z M16,15 L18,15 L18,17 L16,17 L16,15 Z M20,8 L4,8 L4,20 L20,20 L20,8 Z" id="shape" fill="#001018" fill-rule="nonzero"></path>
    </g>
</svg>