<?xml version="1.0" encoding="UTF-8"?>
<svg width="24px" height="24px" viewBox="0 0 24 24" version="1.1" xmlns="http://www.w3.org/2000/svg" xmlns:xlink="http://www.w3.org/1999/xlink">
    <title>icons/vitamix/business/calendar-date-line</title>
    <g id="icons/vitamix/business/calendar-date-line" stroke="none" stroke-width="1" fill="none" fill-rule="evenodd">
        <rect id="path" fill-rule="nonzero" x="0" y="0" width="24" height="24"></rect>
        <path d="M17,4 L21,4 C21.5522847,4 22,4.44771525 22,5 L22,21 C22,21.5522847 21.5522847,22 21,22 L3,22 C2.44771525,22 2,21.5522847 2,21 L2,5 C2,4.44771525 2.44771525,4 3,4 L7,4 L7,2 L9,2 L9,4 L15,4 L15,2 L17,2 L17,4 Z M8.27539062,18.1171875 C9.18554688,18.1171875 9.91699219,17.8886719 10.4697266,17.4316406 C11.0224609,16.9746094 11.2988281,16.3671875 11.2988281,15.609375 C11.2988281,15.140625 11.1806641,14.734375 10.9443359,14.390625 C10.7080078,14.046875 10.3496094,13.7890625 9.86914062,13.6171875 C10.2558594,13.4414062 10.5683594,13.1894531 10.8066406,12.8613281 C11.0449219,12.5332031 11.1640625,12.1738281 11.1640625,11.7832031 C11.1640625,11.0253906 10.9082031,10.4306641 10.3964844,9.99902344 C9.88476562,9.56738281 9.17773438,9.3515625 8.27539062,9.3515625 C7.75585938,9.3515625 7.28027344,9.45117188 6.84863281,9.65039062 C6.41699219,9.84960938 6.08105469,10.1259766 5.84082031,10.4794922 C5.60058594,10.8330078 5.48046875,11.2324219 5.48046875,11.6777344 L5.48046875,11.6777344 L7.17382812,11.6777344 C7.17382812,11.3925781 7.28320312,11.1611328 7.50195312,10.9833984 C7.72070312,10.8056641 7.9921875,10.7167969 8.31640625,10.7167969 C8.67578125,10.7167969 8.95800781,10.8125 9.16308594,11.0039062 C9.36816406,11.1953125 9.47070312,11.4628906 9.47070312,11.8066406 C9.47070312,12.1621094 9.3671875,12.4472656 9.16015625,12.6621094 C8.953125,12.8769531 8.63476562,12.984375 8.20507812,12.984375 L8.20507812,12.984375 L7.30273438,12.984375 L7.30273438,14.3085938 L8.19921875,14.3085938 C9.13671875,14.3085938 9.60546875,14.734375 9.60546875,15.5859375 C9.60546875,15.9375 9.49121094,16.2197266 9.26269531,16.4326172 C9.03417969,16.6455078 8.71875,16.7519531 8.31640625,16.7519531 C7.96484375,16.7519531 7.66894531,16.6503906 7.42871094,16.4472656 C7.18847656,16.2441406 7.06835938,15.9824219 7.06835938,15.6621094 L7.06835938,15.6621094 L5.375,15.6621094 C5.375,16.4003906 5.64550781,16.9941406 6.18652344,17.4433594 C6.72753906,17.8925781 7.42382812,18.1171875 8.27539062,18.1171875 Z M15.3300781,18.1171875 C16.2714844,18.1171875 16.9863281,17.8046875 17.4746094,17.1796875 C17.9628906,16.5546875 18.2070312,15.6523438 18.2070312,14.4726562 L18.2070312,14.4726562 L18.2070312,12.9023438 C18.1953125,11.7578125 17.9433594,10.8798828 17.4511719,10.2685547 C16.9589844,9.65722656 16.2480469,9.3515625 15.3183594,9.3515625 C14.3886719,9.3515625 13.6767578,9.66015625 13.1826172,10.2773438 C12.6884766,10.8945312 12.4414062,11.7988281 12.4414062,12.9902344 L12.4414062,12.9902344 L12.4414062,14.5605469 C12.453125,15.7050781 12.7050781,16.5839844 13.1972656,17.1972656 C13.6894531,17.8105469 14.4003906,18.1171875 15.3300781,18.1171875 Z M15.3300781,16.7519531 C14.9121094,16.7519531 14.6083984,16.5830078 14.4189453,16.2451172 C14.2294922,15.9072266 14.1347656,15.390625 14.1347656,14.6953125 L14.1347656,14.6953125 L14.1347656,12.6210938 C14.1464844,11.96875 14.2470703,11.4892578 14.4365234,11.1826172 C14.6259766,10.8759766 14.9199219,10.7226562 15.3183594,10.7226562 C15.7285156,10.7226562 16.0302734,10.8837891 16.2236328,11.2060547 C16.4169922,11.5283203 16.5136719,12.0429688 16.5136719,12.75 L16.5136719,12.75 L16.5136719,14.7773438 C16.5058594,15.4453125 16.4101562,15.9414062 16.2265625,16.265625 C16.0429688,16.5898438 15.7441406,16.7519531 15.3300781,16.7519531 Z M15,6 L9,6 L9,8 L7,8 L7,6 L4,6 L4,19.9899902 L20,19.9899902 L20,6 L17,6 L17,8 L15,8 L15,6 Z" id="shape" fill="#001018" fill-rule="nonzero"></path>
    </g>
</svg>