<?xml version="1.0" encoding="UTF-8"?>
<svg width="24px" height="24px" viewBox="0 0 24 24" version="1.1" xmlns="http://www.w3.org/2000/svg" xmlns:xlink="http://www.w3.org/1999/xlink">
    <title>icons/vitamix/business/mail-send-fill</title>
    <g id="icons/vitamix/business/mail-send-fill" stroke="none" stroke-width="1" fill="none" fill-rule="evenodd">
        <polygon id="Path" points="0 0 24 0 24 24 0 24"></polygon>
        <path d="M2,5.5 L2,3.993 C2.00380782,3.44655554 2.44555966,3.00435839 2.992,3 L21.008,3 C21.556,3 22,3.445 22,3.993 L22,20.007 C21.9961922,20.5534445 21.5544403,20.9956416 21.008,21 L2.992,21 C2.44397181,20.9994481 2,20.5550285 2,20.007 L2,19 L20,19 L20,7.3 L12,14.5 L2,5.5 Z M0,10 L5,10 L5,12 L0,12 L0,10 Z M0,15 L8,15 L8,17 L0,17 L0,15 Z" id="Shape" fill="#001018" fill-rule="nonzero"></path>
    </g>
</svg>