<?xml version="1.0" encoding="UTF-8"?>
<svg width="24px" height="24px" viewBox="0 0 24 24" version="1.1" xmlns="http://www.w3.org/2000/svg" xmlns:xlink="http://www.w3.org/1999/xlink">
    <title>icons/vitamix/business/package-fill</title>
    <g id="icons/vitamix/business/package-fill" stroke="none" stroke-width="1" fill="none" fill-rule="evenodd">
        <polygon id="path" points="0 0 24 0 24 24 0 24"></polygon>
        <path d="M20,3 L22,7 L22,20 C22,20.5522847 21.5522847,21 21,21 L3,21 C2.44771525,21 2,20.5522847 2,20 L2,7.004 L4,3 L20,3 Z M10,9 L8,9 L8,16.8663668 L12,14.206 L15.9969482,16.8674196 L15.9969482,9 L13.9969482,9 L13.997,13.132 L12.000282,11.8028792 L10,13.135 L10,9 Z M11.0046997,5 L9.00469971,5 L8,7 L10,7 L11.0046997,5 Z M14.9984741,5 L12.9984741,5 L14,7 L16,7 L14.9984741,5 Z M19.764,7 L18.764,5 L5.237,5 L4.237,7 L19.764,7 Z" id="shape" fill="#001018" fill-rule="nonzero"></path>
    </g>
</svg>