<?xml version="1.0" encoding="UTF-8"?>
<svg width="24px" height="24px" viewBox="0 0 24 24" version="1.1" xmlns="http://www.w3.org/2000/svg" xmlns:xlink="http://www.w3.org/1999/xlink">
    <title>icons/vitamix/business/printer-fill</title>
    <g id="icons/vitamix/business/printer-fill" stroke="none" stroke-width="1" fill="none" fill-rule="evenodd">
        <rect id="path" fill-rule="nonzero" x="0" y="0" width="24" height="24"></rect>
        <path d="M7,17 L17,17 L17,22 L7,22 L7,17 Z M19,20 L19,15 L5,15 L5,20 L3,20 C2.44771525,20 2,19.5522847 2,19 L2,9 C2,8.44771525 2.44771525,8 3,8 L21,8 C21.5522847,8 22,8.44771525 22,9 L22,19 C22,19.5522847 21.5522847,20 21,20 L19,20 Z M5,10 L5,12 L8,12 L8,10 L5,10 Z M7,2 L17,2 C17.5522847,2 18,2.44771525 18,3 L18,6 L6,6 L6,3 C6,2.44771525 6.44771525,2 7,2 Z" id="shape" fill="#001018" fill-rule="nonzero"></path>
    </g>
</svg>