<?xml version="1.0" encoding="UTF-8"?>
<svg width="24px" height="24px" viewBox="0 0 24 24" version="1.1" xmlns="http://www.w3.org/2000/svg" xmlns:xlink="http://www.w3.org/1999/xlink">
    <title>icons/vitamix/business/printer-line</title>
    <g id="icons/vitamix/business/printer-line" stroke="none" stroke-width="1" fill="none" fill-rule="evenodd">
        <rect id="path" fill-rule="nonzero" x="0" y="0" width="24" height="24"></rect>
        <path d="M6,19 L3,19 C2.44771525,19 2,18.5522847 2,18 L2,8 C2,7.44771525 2.44771525,7 3,7 L6,7 L6,3 C6,2.44771525 6.44771525,2 7,2 L17,2 C17.5522847,2 18,2.44771525 18,3 L18,7 L21,7 C21.5522847,7 22,7.44771525 22,8 L22,18 C22,18.5522847 21.5522847,19 21,19 L18,19 L18,21 C18,21.5522847 17.5522847,22 17,22 L7,22 C6.44771525,22 6,21.5522847 6,21 L6,19 Z M6,17 L6,16 C6,15.4477153 6.44771525,15 7,15 L17,15 C17.5522847,15 18,15.4477153 18,16 L18,17 L20,17 L20,9 L4,9 L4,17 L6,17 Z M8,4 L8,7 L16,7 L16,4 L8,4 Z M8,17 L8,20 L16,20 L16,17 L8,17 Z M5,10 L8,10 L8,12 L5,12 L5,10 Z" id="shape" fill="#001018" fill-rule="nonzero"></path>
    </g>
</svg>