<?xml version="1.0" encoding="UTF-8"?>
<svg width="24px" height="24px" viewBox="0 0 24 24" version="1.1" xmlns="http://www.w3.org/2000/svg" xmlns:xlink="http://www.w3.org/1999/xlink">
    <title>icons/vitamix/user&amp;faces/emotion-laugh-line</title>
    <g id="icons/vitamix/user&amp;faces/emotion-laugh-line" stroke="none" stroke-width="1" fill="none" fill-rule="evenodd">
        <rect id="path" fill-rule="nonzero" x="0" y="0" width="24" height="24"></rect>
        <path d="M12,2 C17.523,2 22,6.477 22,12 C22,17.523 17.523,22 12,22 C6.477,22 2,17.523 2,12 C2,6.477 6.477,2 12,2 Z M12,4 C7.581722,4 4,7.581722 4,12 C4,16.418278 7.581722,20 12,20 C16.418278,20 20,16.418278 20,12 C20,7.581722 16.418278,4 12,4 Z M12,11 C14,11 15.667,11.333 17,12 C17,14.7614237 14.7614237,17 12,17 C9.23857625,17 7,14.7614237 7,12 C8.333,11.333 10,11 12,11 L12,11 Z M8.5,6.99999995 C9.68817155,6.9997575 10.7123657,7.83583436 10.95,8.99999995 L6.05,8.99999995 C6.28763429,7.83583436 7.31182845,6.9997575 8.5,6.99999995 L8.5,6.99999995 Z M15.5,6.99999995 C16.6881715,6.9997575 17.7123657,7.83583436 17.95,8.99999995 L13.05,8.99999995 C13.2876343,7.83583436 14.3118285,6.9997575 15.5,6.99999995 L15.5,6.99999995 Z" id="shape" fill="#001018" fill-rule="nonzero"></path>
    </g>
</svg>