<?xml version="1.0" encoding="UTF-8"?>
<svg width="24px" height="24px" viewBox="0 0 24 24" version="1.1" xmlns="http://www.w3.org/2000/svg" xmlns:xlink="http://www.w3.org/1999/xlink">
    <title>icons/vitamix/user&amp;faces/emotion-sad-line</title>
    <g id="icons/vitamix/user&amp;faces/emotion-sad-line" stroke="none" stroke-width="1" fill="none" fill-rule="evenodd">
        <rect id="path" fill-rule="nonzero" x="0" y="0" width="24" height="24"></rect>
        <path d="M12,2 C17.523,2 22,6.477 22,12 C22,12.727 21.923,13.435 21.775,14.118 L19.993,12.335 C20.1438354,8.72662098 17.8583558,5.46462854 14.4153679,4.37422289 C10.9723799,3.28381725 7.22575839,4.63542336 5.27187066,7.67276976 C3.31798292,10.7101162 3.64140091,14.6799288 6.06116082,17.3609571 C8.48092073,20.0419853 12.3969124,20.7693234 15.618,19.136 C15.9996729,19.7409234 16.5366799,20.2323452 17.173,20.559 C15.6131974,21.5040701 13.8237695,22.0025363 12,22 C6.477,22 2,17.523 2,12 C2,6.477 6.477,2 12,2 Z M19,14.172 L20.414,15.586 C21.1814693,16.3531964 21.197118,17.5924437 20.4492659,18.3787749 C19.7014139,19.1651062 18.4629403,19.2116018 17.6582346,18.4835577 C16.8535288,17.7555136 16.7762152,16.5185814 17.484,15.696 L17.586,15.586 L19,14.172 Z M12,14.9999956 C13.466,14.9999956 14.785,15.631 15.7,16.637 L14.755,17.497 C13.965,17.182 13.018,16.9999956 12,16.9999956 C10.982,16.9999956 10.035,17.183 9.245,17.496 L8.3,16.636 C9.24682266,15.592439 10.5909261,14.9981273 12,14.9999956 L12,14.9999956 Z M8.5,10 C9.32842712,10 10,10.6715729 10,11.5 C10,12.3284271 9.32842712,13 8.5,13 C7.67157288,13 7,12.3284271 7,11.5 C7,10.6715729 7.67157288,10 8.5,10 Z M15.5,10 C16.3284271,10 17,10.6715729 17,11.5 C17,12.3284271 16.3284271,13 15.5,13 C14.6715729,13 14,12.3284271 14,11.5 C14,10.6715729 14.6715729,10 15.5,10 L15.5,10 Z" id="shape" fill="#001018" fill-rule="nonzero"></path>
    </g>
</svg>