<?xml version="1.0" encoding="UTF-8"?>
<svg width="24px" height="24px" viewBox="0 0 24 24" version="1.1" xmlns="http://www.w3.org/2000/svg" xmlns:xlink="http://www.w3.org/1999/xlink">
    <title>icons/vitamix/user&amp;faces/emotion-line</title>
    <g id="icons/vitamix/user&amp;faces/emotion-line" stroke="none" stroke-width="1" fill="none" fill-rule="evenodd">
        <rect id="path" fill-rule="nonzero" x="0" y="0" width="24" height="24"></rect>
        <path d="M12,22 C6.477,22 2,17.523 2,12 C2,6.477 6.477,2 12,2 C17.523,2 22,6.477 22,12 C22,17.523 17.523,22 12,22 Z M12,20 C16.418278,20 20,16.418278 20,12 C20,7.581722 16.418278,4 12,4 C7.581722,4 4,7.581722 4,12 C4,16.418278 7.581722,20 12,20 Z M8,13 L16,13 C16,15.209139 14.209139,17 12,17 C9.790861,17 8,15.209139 8,13 Z M8,11 C7.17157288,11 6.5,10.3284271 6.5,9.5 C6.5,8.67157288 7.17157288,8 8,8 C8.82842712,8 9.5,8.67157288 9.5,9.5 C9.5,10.3284271 8.82842712,11 8,11 Z M16,11 C15.1715729,11 14.5,10.3284271 14.5,9.5 C14.5,8.67157288 15.1715729,8 16,8 C16.8284271,8 17.5,8.67157288 17.5,9.5 C17.5,10.3284271 16.8284271,11 16,11 Z" id="shape" fill="#001018" fill-rule="nonzero"></path>
    </g>
</svg>