<?xml version="1.0" encoding="UTF-8"?>
<svg width="24px" height="24px" viewBox="0 0 24 24" version="1.1" xmlns="http://www.w3.org/2000/svg" xmlns:xlink="http://www.w3.org/1999/xlink">
    <title>icons/vitamix/user&amp;faces/emotion-laugh-fill</title>
    <g id="icons/vitamix/user&amp;faces/emotion-laugh-fill" stroke="none" stroke-width="1" fill="none" fill-rule="evenodd">
        <rect id="path" fill-rule="nonzero" x="0" y="0" width="24" height="24"></rect>
        <path d="M12,2 C17.523,2 22,6.477 22,12 C22,17.523 17.523,22 12,22 C6.477,22 2,17.523 2,12 C2,6.477 6.477,2 12,2 Z M12,11 C10,11 8.333,11.333 7,12 C7,14.7614237 9.23857625,17 12,17 C14.7614237,17 17,14.7614237 17,12 C15.667,11.333 14,11 12,11 L12,11 Z M8.5,6.99999995 C7.348,6.99999995 6.378,7.78 6.088,8.84 L6.05,8.99999995 L10.95,8.99999995 C10.7123657,7.83583436 9.68817155,6.9997575 8.5,6.99999995 L8.5,6.99999995 Z M15.5,6.99999995 C14.348,6.99999995 13.378,7.78 13.088,8.84 L13.05,8.99999995 L17.95,8.99999995 C17.7123657,7.83583436 16.6881715,6.9997575 15.5,6.99999995 L15.5,6.99999995 Z" id="shape" fill="#001018" fill-rule="nonzero"></path>
    </g>
</svg>