<?xml version="1.0" encoding="UTF-8"?>
<svg width="24px" height="24px" viewBox="0 0 24 24" version="1.1" xmlns="http://www.w3.org/2000/svg" xmlns:xlink="http://www.w3.org/1999/xlink">
    <title>icons/vitamix/user&amp;faces/emotion-sad-fill</title>
    <g id="icons/vitamix/user&amp;faces/emotion-sad-fill" stroke="none" stroke-width="1" fill="none" fill-rule="evenodd">
        <rect id="path" fill-rule="nonzero" x="0" y="0" width="24" height="24"></rect>
        <path d="M12,2 C17.523,2 22.0000118,6.477 22.0000118,12 C22.0024017,13.5614371 21.6375822,15.1015575 20.935,16.496 C20.8616131,16.2112853 20.7256454,15.9465239 20.537,15.721 L20.414,15.586 L19,14.172 L17.586,15.586 L17.469,15.713 C16.950974,16.3287659 16.8524326,17.1950218 17.2189192,17.9114059 C17.5854057,18.62779 18.3455373,19.0547675 19.148,18.995 C17.268146,20.9197398 14.6904391,22.0034008 12,22 C6.477,22 2,17.523 2,12 C2,6.477 6.477,2 12,2 Z M12,14.9999956 C10.62,14.9999956 9.37,15.56 8.466,16.463 L8.3,16.637 L9.245,17.497 C10.035,17.182 10.982,16.9999956 12,16.9999956 C12.905,16.9999956 13.754,17.144 14.486,17.396 L14.755,17.496 L15.7,16.636 C14.7531773,15.592439 13.4090739,14.9981273 12,14.9999956 L12,14.9999956 Z M8.5,10 C7.67157288,10 7,10.6715729 7,11.5 C7,12.3284271 7.67157288,13 8.5,13 C9.32842712,13 10,12.3284271 10,11.5 C10,10.6715729 9.32842712,10 8.5,10 Z M15.5,10 C14.6715729,10 14,10.6715729 14,11.5 C14,12.3284271 14.6715729,13 15.5,13 C16.3284271,13 17,12.3284271 17,11.5 C17,10.6715729 16.3284271,10 15.5,10 L15.5,10 Z" id="shape" fill="#001018" fill-rule="nonzero"></path>
    </g>
</svg>