<?xml version="1.0" encoding="UTF-8"?>
<svg width="24px" height="24px" viewBox="0 0 24 24" version="1.1" xmlns="http://www.w3.org/2000/svg" xmlns:xlink="http://www.w3.org/1999/xlink">
    <title>icons/vitamix/user&amp;faces/user-line</title>
    <g id="icons/vitamix/user&amp;faces/user-line" stroke="none" stroke-width="1" fill="none" fill-rule="evenodd">
        <rect id="path" fill-rule="nonzero" x="0" y="0" width="24" height="24"></rect>
        <path d="M4,23 C4,18.581722 7.581722,15 12,15 C16.418278,15 20,18.581722 20,23 L18,23 C18,19.6862915 15.3137085,17 12,17 C8.6862915,17 6,19.6862915 6,23 L4,23 L4,23 Z M12,14 C8.685,14 6,11.315 6,8 C6,4.685 8.685,2 12,2 C15.315,2 18,4.685 18,8 C18,11.315 15.315,14 12,14 Z M12,12 C14.21,12 16,10.21 16,8 C16,5.79 14.21,4 12,4 C9.79,4 8,5.79 8,8 C8,10.21 9.79,12 12,12 Z" id="shape" fill="#001018" fill-rule="nonzero"></path>
    </g>
</svg>