<?xml version="1.0" encoding="UTF-8"?>
<svg width="24px" height="24px" viewBox="0 0 24 24" version="1.1" xmlns="http://www.w3.org/2000/svg" xmlns:xlink="http://www.w3.org/1999/xlink">
    <title>icons/vitamix/finance/bank-card-fill</title>
    <g id="icons/vitamix/finance/bank-card-fill" stroke="none" stroke-width="1" fill="none" fill-rule="evenodd">
        <polygon id="Path" points="0 0 24 0 24 24 0 24"></polygon>
        <path d="M22,10 L22,20 C22,20.5522847 21.5522847,21 21,21 L3,21 C2.44771525,21 2,20.5522847 2,20 L2,10 L22,10 Z M22,8 L2,8 L2,4 C2,3.44771525 2.44771525,3 3,3 L21,3 C21.5522847,3 22,3.44771525 22,4 L22,8 Z M15,16 L15,18 L19,18 L19,16 L15,16 Z" id="Shape" fill="#001018" fill-rule="nonzero"></path>
    </g>
</svg>