<?xml version="1.0" encoding="UTF-8"?>
<svg width="24px" height="24px" viewBox="0 0 24 24" version="1.1" xmlns="http://www.w3.org/2000/svg" xmlns:xlink="http://www.w3.org/1999/xlink">
    <title>icons/vitamix/finance/exchange-fill</title>
    <g id="icons/vitamix/finance/exchange-fill" stroke="none" stroke-width="1" fill="none" fill-rule="evenodd">
        <polygon id="path" points="0 0 24 0 24 24 0 24"></polygon>
        <path d="M12,22 C6.477,22 2,17.523 2,12 C2,6.477 6.477,2 12,2 C17.523,2 22,6.477 22,12 C22,17.523 17.523,22 12,22 Z M12,9 L8,9 L8,11 L17,11 L12,6 L12,9 Z M7,13 L12,18 L12,15 L16,15 L16,13 L7,13 Z" id="shape" fill="#000000" fill-rule="nonzero"></path>
    </g>
</svg>