<?xml version="1.0" encoding="UTF-8"?>
<svg width="24px" height="24px" viewBox="0 0 24 24" version="1.1" xmlns="http://www.w3.org/2000/svg" xmlns:xlink="http://www.w3.org/1999/xlink">
    <title>icons/vitamix/finance/mastercard-fill</title>
    <g id="icons/vitamix/finance/mastercard-fill" stroke="none" stroke-width="1" fill="none" fill-rule="evenodd">
        <rect id="path" fill-rule="nonzero" x="0" y="0" width="24" height="24"></rect>
        <path d="M12,6.654 C13.6405706,7.94175751 14.5978592,9.91238553 14.5960027,11.998 C14.5972444,14.0829126 13.6400177,16.0526757 12,17.34 C10.3597059,16.0524591 9.40244823,14.0822635 9.40399812,11.997 C9.40244823,9.91173646 10.3597059,7.94154093 12,6.654 L12,6.654 Z M11.13,6.072 C9.39545196,7.55260356 8.39755503,9.71946545 8.4,12 C8.39764164,14.2795135 9.39472886,16.4454735 11.128,17.926 C8.26887421,19.5310139 4.67150697,18.866493 2.5744704,16.3459559 C0.477433834,13.8254187 0.478359655,10.1671899 2.57667174,7.64771449 C4.67498383,5.12823909 8.27268697,4.46553913 11.131,6.072 L11.13,6.072 Z M12.872,17.926 C14.6052711,16.4454735 15.6023584,14.2795135 15.6,12 C15.602445,9.71946545 14.604548,7.55260356 12.87,6.072 C15.728313,4.46553913 19.3260162,5.12823909 21.4243283,7.64771449 C23.5226403,10.1671899 23.5235662,13.8254187 21.4265296,16.3459559 C19.329493,18.866493 15.7321258,19.5310139 12.873,17.926 L12.872,17.926 Z" id="shape" fill="#001018" fill-rule="nonzero"></path>
    </g>
</svg>