<?xml version="1.0" encoding="UTF-8"?>
<svg width="24px" height="24px" viewBox="0 0 24 24" version="1.1" xmlns="http://www.w3.org/2000/svg" xmlns:xlink="http://www.w3.org/1999/xlink">
    <title>icons/vitamix/finance/mastercard-line</title>
    <g id="icons/vitamix/finance/mastercard-line" stroke="none" stroke-width="1" fill="none" fill-rule="evenodd">
        <rect id="path" fill-rule="nonzero" x="0" y="0" width="24" height="24"></rect>
        <path d="M12,18.294 C8.93349112,20.0957317 5.01483565,19.4252666 2.72175889,16.706533 C0.428682136,13.9877993 0.428682136,10.0122007 2.72175889,7.29346705 C5.01483565,4.57473339 8.93349112,3.90426833 12,5.706 C15.0665089,3.90426833 18.9851644,4.57473339 21.2782411,7.29346705 C23.5713179,10.0122007 23.5713179,13.9877993 21.2782411,16.706533 C18.9851644,19.4252666 15.0665089,20.0957317 12,18.294 Z M13.702,16.91 C15.9161689,17.8098589 18.4586774,17.1164463 19.909416,15.2170654 C21.3601545,13.3176846 21.3601545,10.6823154 19.909416,8.78293455 C18.4586774,6.8835537 15.9161689,6.19014108 13.702,7.09 C14.9255466,8.43226612 15.6025996,10.1837572 15.6,12 C15.6,13.89 14.881,15.614 13.702,16.91 L13.702,16.91 Z M10.298,7.09 C8.08383111,6.19014108 5.54132257,6.8835537 4.09058404,8.78293455 C2.6398455,10.6823154 2.6398455,13.3176846 4.09058404,15.2170654 C5.54132257,17.1164463 8.08383111,17.8098589 10.298,16.91 C9.07445339,15.5677339 8.39740042,13.8162428 8.4,12 C8.4,10.11 9.119,8.386 10.298,7.09 L10.298,7.09 Z M12,8.205 C10.975339,9.20153137 10.3981026,10.570664 10.3999953,12 C10.3999953,13.488 11.013,14.832 12,15.795 C13.024661,14.7984686 13.6018974,13.429336 13.6000047,12 C13.6018974,10.570664 13.024661,9.20153137 12,8.205 Z" id="shape" fill="#001018" fill-rule="nonzero"></path>
    </g>
</svg>