<?xml version="1.0" encoding="UTF-8"?>
<svg width="24px" height="24px" viewBox="0 0 24 24" version="1.1" xmlns="http://www.w3.org/2000/svg" xmlns:xlink="http://www.w3.org/1999/xlink">
    <title>icons/vitamix/finance/money-euro-box-fill</title>
    <g id="icons/vitamix/finance/money-euro-box-fill" stroke="none" stroke-width="1" fill="none" fill-rule="evenodd">
        <polygon id="path" points="0 0 24 0 24 24 0 24"></polygon>
        <path d="M3,3 L21,3 C21.5522847,3 22,3.44771525 22,4 L22,20 C22,20.5522847 21.5522847,21 21,21 L3,21 C2.44771525,21 2,20.5522847 2,20 L2,4 C2,3.44771525 2.44771525,3 3,3 Z M10.05,11 C10.226245,10.1346698 10.8459446,9.42651864 11.6802528,9.13705639 C12.5145611,8.84759413 13.4396888,9.01976925 14.114,9.59 L15.815,8.457 C14.6220703,7.1575956 12.7799507,6.67499874 11.103146,7.22259271 C9.42634139,7.77018668 8.22409978,9.24698036 8.028,11 L7,11 L7,13 L8.027,13 C8.22276516,14.7534753 9.42519612,16.2307721 11.1024167,16.7784315 C12.7796373,17.326091 14.62217,16.8430601 15.815,15.543 L14.114,14.409 C13.4398283,14.9792181 12.5148612,15.151512 11.6805977,14.8622706 C10.8463343,14.5730291 10.2265234,13.8651564 10.05,13 L15,13.001 L15,11.001 L10.05,11.001 L10.05,11 Z" id="shape" fill="#001018" fill-rule="nonzero"></path>
    </g>
</svg>