<?xml version="1.0" encoding="UTF-8"?>
<svg width="24px" height="24px" viewBox="0 0 24 24" version="1.1" xmlns="http://www.w3.org/2000/svg" xmlns:xlink="http://www.w3.org/1999/xlink">
    <title>icons/vitamix/finance/money-euro-box-line</title>
    <g id="icons/vitamix/finance/money-euro-box-line" stroke="none" stroke-width="1" fill="none" fill-rule="evenodd">
        <polygon id="path" points="0 0 24 0 24 24 0 24"></polygon>
        <path d="M3,3 L21,3 C21.5522847,3 22,3.44771525 22,4 L22,20 C22,20.5522847 21.5522847,21 21,21 L3,21 C2.44771525,21 2,20.5522847 2,20 L2,4 C2,3.44771525 2.44771525,3 3,3 Z M4,5 L4,19 L20,19 L20,5 L4,5 Z M10.05,11 L15,11 L15,13 L10.05,13 C10.226245,13.8653302 10.8459446,14.5734814 11.6802528,14.8629436 C12.5145611,15.1524059 13.4396888,14.9802307 14.114,14.41 L15.814,15.543 C14.6209709,16.8417491 12.7792642,17.3239123 11.1028752,16.7763838 C9.42648626,16.2288552 8.22443396,14.7525642 8.028,13 L7,13 L7,11 L8.027,11 C8.22276516,9.24652467 9.42519612,7.76922794 11.1024167,7.22156847 C12.7796373,6.67390901 14.62217,7.15693985 15.815,8.457 L14.114,9.59 C13.4396888,9.01976925 12.5145611,8.84759413 11.6802528,9.13705639 C10.8459446,9.42651864 10.226245,10.1346698 10.05,11 Z" id="shape" fill="#001018" fill-rule="nonzero"></path>
    </g>
</svg>