<?xml version="1.0" encoding="UTF-8"?>
<svg width="24px" height="24px" viewBox="0 0 24 24" version="1.1" xmlns="http://www.w3.org/2000/svg" xmlns:xlink="http://www.w3.org/1999/xlink">
    <title>icons/vitamix/finance/money-cny-box-line</title>
    <g id="icons/vitamix/finance/money-cny-box-line" stroke="none" stroke-width="1" fill="none" fill-rule="evenodd">
        <polygon id="path" points="0 0 24 0 24 24 0 24"></polygon>
        <path d="M3,3 L21,3 C21.5522847,3 22,3.44771525 22,4 L22,20 C22,20.5522847 21.5522847,21 21,21 L3,21 C2.44771525,21 2,20.5522847 2,20 L2,4 C2,3.44771525 2.44771525,3 3,3 Z M4,5 L4,19 L20,19 L20,5 L4,5 Z M13,13 L16,13 L16,15 L13,15 L13,17 L11,17 L11,15 L8,15 L8,13 L11,13 L11,12 L8,12 L8,10 L10.586,10 L8.464,7.879 L9.88,6.464 L12,8.586 L14.121,6.464 L15.536,7.879 L13.414,10 L16,10 L16,12 L13,12 L13,13 Z" id="shape" fill="#001018" fill-rule="nonzero"></path>
    </g>
</svg>