<?xml version="1.0" encoding="UTF-8"?>
<svg width="24px" height="24px" viewBox="0 0 24 24" version="1.1" xmlns="http://www.w3.org/2000/svg" xmlns:xlink="http://www.w3.org/1999/xlink">
    <title>icons/vitamix/finance/money-dollar-box-fill</title>
    <g id="icons/vitamix/finance/money-dollar-box-fill" stroke="none" stroke-width="1" fill="none" fill-rule="evenodd">
        <polygon id="path" points="0 0 24 0 24 24 0 24"></polygon>
        <path d="M3,3 L21,3 C21.5522847,3 22,3.44771525 22,4 L22,20 C22,20.5522847 21.5522847,21 21,21 L3,21 C2.44771525,21 2,20.5522847 2,20 L2,4 C2,3.44771525 2.44771525,3 3,3 Z M8.5,14 L8.5,16 L11,16 L11,18 L13,18 L13,16 L14,16 C15.3807119,16 16.5,14.8807119 16.5,13.5 C16.5,12.1192881 15.3807119,11 14,11 L10,11 C9.72385763,11 9.5,10.7761424 9.5,10.5 C9.5,10.2238576 9.72385763,10 10,10 L15.5,10 L15.5,8 L13,8 L13,6 L11,6 L11,8 L10,8 C8.61928813,8 7.5,9.11928813 7.5,10.5 C7.5,11.8807119 8.61928813,13 10,13 L14,13 C14.2761424,13 14.5,13.2238576 14.5,13.5 C14.5,13.7761424 14.2761424,14 14,14 L8.5,14 Z" id="shape" fill="#001018" fill-rule="nonzero"></path>
    </g>
</svg>