<?xml version="1.0" encoding="UTF-8"?>
<svg width="24px" height="24px" viewBox="0 0 24 24" version="1.1" xmlns="http://www.w3.org/2000/svg" xmlns:xlink="http://www.w3.org/1999/xlink">
    <title>icons/vitamix/finance/refund-fill</title>
    <g id="icons/vitamix/finance/refund-fill" stroke="none" stroke-width="1" fill="none" fill-rule="evenodd">
        <polygon id="path" points="0 0 24 0 24 24 0 24"></polygon>
        <path d="M22,7 L2,7 L2,4 C2,3.44771525 2.44771525,3 3,3 L21,3 C21.5522847,3 22,3.44771525 22,4 L22,7 Z M22,9 L22,20 C22,20.5522847 21.5522847,21 21,21 L3,21 C2.44771525,21 2,20.5522847 2,20 L2,9 L22,9 Z M11,14 L11,11.5 L6.5,16 L17,16 L17,14 L11,14 Z" id="shape" fill="#001018" fill-rule="nonzero"></path>
    </g>
</svg>