<?xml version="1.0" encoding="UTF-8"?>
<svg width="24px" height="24px" viewBox="0 0 24 24" version="1.1" xmlns="http://www.w3.org/2000/svg" xmlns:xlink="http://www.w3.org/1999/xlink">
    <title>icons/vitamix/finance/refund-line</title>
    <g id="icons/vitamix/finance/refund-line" stroke="none" stroke-width="1" fill="none" fill-rule="evenodd">
        <polygon id="path" points="0 0 24 0 24 24 0 24"></polygon>
        <path d="M20,8 L20,5 L4,5 L4,8 L20,8 Z M20,10 L4,10 L4,19 L20,19 L20,10 Z M3,3 L21,3 C21.5522847,3 22,3.44771525 22,4 L22,20 C22,20.5522847 21.5522847,21 21,21 L3,21 C2.44771525,21 2,20.5522847 2,20 L2,4 C2,3.44771525 2.44771525,3 3,3 Z M11,14 L17,14 L17,16 L6.5,16 L11,11.5 L11,14 Z" id="shape" fill="#001018" fill-rule="nonzero"></path>
    </g>
</svg>