<?xml version="1.0" encoding="UTF-8"?>
<svg width="24px" height="24px" viewBox="0 0 24 24" version="1.1" xmlns="http://www.w3.org/2000/svg" xmlns:xlink="http://www.w3.org/1999/xlink">
    <title>icons/vitamix/finance/secure-payment-line</title>
    <g id="icons/vitamix/finance/secure-payment-line" stroke="none" stroke-width="1" fill="none" fill-rule="evenodd">
        <polygon id="path" points="0 0 24 0 24 24 0 24"></polygon>
        <path d="M11,2 L18.298,4.28 C18.7157673,4.41042015 19.00019,4.79734838 19,5.235 L19,7 L21,7 C21.5522847,7 22,7.44771525 22,8 L22,16 C22,16.5522847 21.5522847,17 21,17 L17.78,17.001 C17.393,17.511 16.923,17.961 16.38,18.331 L11,22 L5.62,18.332 C3.98057855,17.2142228 2.99979442,15.3582199 2.99999997,13.374 L2.99999997,5.235 C3.00024747,4.79771761 3.28458507,4.4113101 3.702,4.281 L11,2 Z M10.9999999,4.094 L4.99999989,5.97 L4.99999989,13.374 C4.99971,14.6148045 5.57526263,15.7854889 6.558,16.543 L6.747,16.679 L10.9999999,19.58 L14.782,17 L9.99999989,17 C9.44771525,17 8.99999989,16.5522847 8.99999989,16 L8.99999989,8 C8.99999989,7.44771525 9.44771525,7 9.99999989,7 L16.9999999,7 L16.9999999,5.97 L10.9999999,4.094 Z M11,12 L11,15 L20,15 L20,12 L11,12 Z M11,10 L20,10 L20,9 L11,9 L11,10 Z" id="shape" fill="#001018" fill-rule="nonzero"></path>
    </g>
</svg>