<?xml version="1.0" encoding="UTF-8"?>
<svg width="24px" height="24px" viewBox="0 0 24 24" version="1.1" xmlns="http://www.w3.org/2000/svg" xmlns:xlink="http://www.w3.org/1999/xlink">
    <title>icons/vitamix/finance/secure-payment-fill</title>
    <g id="icons/vitamix/finance/secure-payment-fill" stroke="none" stroke-width="1" fill="none" fill-rule="evenodd">
        <polygon id="path" points="0 0 24 0 24 24 0 24"></polygon>
        <path d="M11,2 L18.298,4.28 C18.7157673,4.41042015 19.00019,4.79734838 19,5.235 L19,7 L21,7 C21.5522847,7 22,7.44771525 22,8 L22,10 L8.99999997,10 L8.99999997,8 C8.99999997,7.44771525 9.44771525,7 9.99999997,7 L17,7 L17,5.97 L11,4.094 L4.99999997,5.97 L4.99999997,13.374 C4.99971,14.6148045 5.57526263,15.7854889 6.558,16.543 L6.747,16.679 L11,19.58 L14.782,17 L9.99999997,17 C9.44771525,17 8.99999997,16.5522847 8.99999997,16 L8.99999997,12 L22,12 L22,16 C22,16.5522847 21.5522847,17 21,17 L17.78,17.001 C17.393,17.511 16.923,17.961 16.38,18.331 L11,22 L5.62,18.332 C3.98057855,17.2142228 2.99979442,15.3582199 2.99999997,13.374 L2.99999997,5.235 C3.00024747,4.79771761 3.28458507,4.4113101 3.702,4.281 L11,2 Z" id="shape" fill="#001018" fill-rule="nonzero"></path>
    </g>
</svg>