<?xml version="1.0" encoding="UTF-8"?>
<svg width="24px" height="24px" viewBox="0 0 24 24" version="1.1" xmlns="http://www.w3.org/2000/svg" xmlns:xlink="http://www.w3.org/1999/xlink">
    <title>icons/vitamix/finance/shopping-cart-line</title>
    <g id="icons/vitamix/finance/shopping-cart-line" stroke="none" stroke-width="1" fill="none" fill-rule="evenodd">
        <rect id="path" fill-rule="nonzero" x="0" y="0" width="24" height="24"></rect>
        <path d="M8,19 C9.1045695,19 10,19.8954305 10,21 C10,22.1045695 9.1045695,23 8,23 C6.8954305,23 6,22.1045695 6,21 C6,19.8954305 6.8954305,19 8,19 Z M17,19 C18.1045695,19 19,19.8954305 19,21 C19,22.1045695 18.1045695,23 17,23 C15.8954305,23 15,22.1045695 15,21 C15,19.8954305 15.8954305,19 17,19 Z M4,2 C4.45639845,2 4.84955508,2.30788329 4.96560003,2.73974503 L4.98871434,2.85018692 L5.466,5.997 L21,5.99682617 C21.5995606,5.99682617 22.0546667,6.51717316 21.9951716,7.09668599 L21.9763015,7.21324079 L19.9806961,16.2159263 C19.8876764,16.6355621 19.5388317,16.944295 19.1201671,16.9928364 L19.0043945,16.9995117 L5.96972656,16.9995117 C5.51332811,16.9995117 5.12017148,16.6916284 5.00412653,16.2597667 L4.98101223,16.1493248 L3.141,4 L1,4 L1,2 L4,2 Z M19.755,7.997 L5.769,7.997 L6.83,15 L18.203,15 L19.755,7.997 Z" id="shape" fill="#001018" fill-rule="nonzero"></path>
    </g>
</svg>