<?xml version="1.0" encoding="UTF-8"?>
<svg width="24px" height="24px" viewBox="0 0 24 24" version="1.1" xmlns="http://www.w3.org/2000/svg" xmlns:xlink="http://www.w3.org/1999/xlink">
    <title>icons/vitamix/finance/visa-fill</title>
    <g id="icons/vitamix/finance/visa-fill" stroke="none" stroke-width="1" fill="none" fill-rule="evenodd">
        <rect id="path" fill-rule="nonzero" x="0" y="0" width="24" height="24"></rect>
        <path d="M1,4 L23,4 L23,6 L1,6 L1,4 Z M1,18 L23,18 L23,20 L1,20 L1,18 Z M19.622,14.914 L19.448,14.044 L17.499,14.044 L17.189,14.907 L15.627,14.91 C16.632,12.504 17.377,10.72 17.863,9.562 C17.99,9.259 18.216,9.105 18.548,9.10698077 C18.802,9.109 19.217,9.109 19.793,9.10698077 L21,14.912 L19.622,14.915 L19.622,14.914 Z M17.938,12.852 L19.194,12.852 L18.724,10.672 L17.938,12.852 Z M7.872,9.106 L9.442,9.108 L7.015,14.914 L5.425,14.913 C4.888,12.843 4.493,11.307 4.241,10.308 C4.164,10.001 4.011,9.787 3.715,9.686 C3.452,9.596 3.014,9.456 2.4,9.267 L2.4,9.107 L4.909,9.107 C5.343,9.107 5.596,9.317 5.678,9.747 L6.298,13.036 L7.872,9.106 L7.872,9.106 Z M11.599,9.108 L10.359,14.913 L8.864,14.911 L10.104,9.106 L11.599,9.108 Z M14.631,9 C15.077,9 15.641,9.138 15.965,9.267 L15.703,10.471 C15.41,10.353 14.928,10.194 14.523,10.201 C13.933,10.21 13.569,10.457 13.569,10.694 C13.569,11.078 14.201,11.272 14.853,11.693 C15.596,12.173 15.693,12.603 15.684,13.071 C15.674,14.042 14.853,15 13.12,15 C12.329,14.988 12.044,14.922 11.4,14.694 L11.672,13.438 C12.328,13.712 12.607,13.799 13.167,13.799 C13.682,13.799 14.123,13.592 14.127,13.231 C14.129,12.974 13.972,12.847 13.395,12.529 C12.818,12.212 12.01,11.773 12.02,10.889 C12.033,9.759 13.107,9 14.63,9 L14.631,9 Z" id="shape" fill="#001018" fill-rule="nonzero"></path>
    </g>
</svg>