<?xml version="1.0" encoding="UTF-8"?>
<svg width="24px" height="24px" viewBox="0 0 24 24" version="1.1" xmlns="http://www.w3.org/2000/svg" xmlns:xlink="http://www.w3.org/1999/xlink">
    <title>icons/vitamix/finance/visa-line</title>
    <g id="icons/vitamix/finance/visa-line" stroke="none" stroke-width="1" fill="none" fill-rule="evenodd">
        <rect id="path" fill-rule="nonzero" x="0" y="0" width="24" height="24"></rect>
        <path d="M22.222,15.768 L21.997,14.643 L19.483,14.643 L19.083,15.76 L17.068,15.764 C18.0272752,13.4571425 18.9886089,11.1511416 19.952,8.846 C20.116,8.455 20.407,8.256 20.836,8.25798507 C21.164,8.261 21.699,8.261 22.442,8.259 L24,15.765 L22.222,15.768 Z M20.049,13.102 L21.669,13.102 L21.064,10.282 L20.049,13.102 Z M7.06,8.257 L9.086,8.259 L5.954,15.769 L3.903,15.767 C3.38724868,13.7833187 2.87791268,11.797975 2.375,9.811 C2.275,9.415 2.077,9.138 1.696,9.007 C1.357,8.89 0.792,8.71 0,8.465 L0,8.26 L3.237,8.26 C3.797,8.26 4.124,8.531 4.229,9.087 C4.335,9.644 4.601,11.062 5.029,13.341 L7.06,8.257 Z M11.87,8.259 L10.268,15.767 L8.34,15.765 L9.94,8.257 L11.87,8.259 Z M15.78,8.12 C16.357,8.12 17.084,8.3 17.502,8.465 L17.164,10.022 C16.786,9.87 16.164,9.665 15.641,9.672 C14.881,9.685 14.411,10.004 14.411,10.31 C14.411,10.808 15.227,11.059 16.067,11.603 C17.026,12.223 17.152,12.78 17.14,13.385 C17.127,14.641 16.067,15.88 13.831,15.88 C12.811,15.865 12.443,15.779 11.611,15.484 L11.963,13.859 C12.81,14.214 13.169,14.327 13.893,14.327 C14.556,14.327 15.125,14.059 15.13,13.592 C15.134,13.26 14.93,13.095 14.186,12.685 C13.442,12.274 12.398,11.705 12.412,10.563 C12.429,9.101 13.814,8.12 15.781,8.12 L15.78,8.12 Z" id="shape" fill="#001018" fill-rule="nonzero"></path>
    </g>
</svg>