<?xml version="1.0" encoding="UTF-8"?>
<svg width="24px" height="24px" viewBox="0 0 24 24" version="1.1" xmlns="http://www.w3.org/2000/svg" xmlns:xlink="http://www.w3.org/1999/xlink">
    <title>icons/vitamix/device/database-2-line</title>
    <g id="icons/vitamix/device/database-2-line" stroke="none" stroke-width="1" fill="none" fill-rule="evenodd">
        <polygon id="path" points="0 0 24 0 24 24 0 24"></polygon>
        <path d="M5,12.5 C5,12.813 5.461,13.358 6.53,13.893 C7.914,14.585 9.877,15 12,15 C14.123,15 16.086,14.585 17.47,13.893 C18.539,13.358 19,12.813 19,12.5 L19,10.329 C17.35,11.349 14.827,12 12,12 C9.173,12 6.65,11.348 5,10.329 L5,12.5 Z M19,15.329 C17.35,16.349 14.827,17 12,17 C9.173,17 6.65,16.348 5,15.329 L5,17.5 C5,17.813 5.461,18.358 6.53,18.893 C7.914,19.585 9.877,20 12,20 C14.123,20 16.086,19.585 17.47,18.893 C18.539,18.358 19,17.813 19,17.5 L19,15.329 Z M3,17.5 L3,7.5 C3,5.015 7.03,3 12,3 C16.97,3 21,5.015 21,7.5 L21,17.5 C21,19.985 16.97,22 12,22 C7.03,22 3,19.985 3,17.5 Z M12,10 C14.123,10 16.086,9.585 17.47,8.893 C18.539,8.358 19,7.813 19,7.5 C19,7.187 18.539,6.642 17.47,6.107 C16.086,5.415 14.123,5 12,5 C9.877,5 7.914,5.415 6.53,6.107 C5.461,6.642 5,7.187 5,7.5 C5,7.813 5.461,8.358 6.53,8.893 C7.914,9.585 9.877,10 12,10 Z" id="shape" fill="#001018" fill-rule="nonzero"></path>
    </g>
</svg>