<?xml version="1.0" encoding="UTF-8"?>
<svg width="24px" height="24px" viewBox="0 0 24 24" version="1.1" xmlns="http://www.w3.org/2000/svg" xmlns:xlink="http://www.w3.org/1999/xlink">
    <title>icons/vitamix/device/database-2-fill</title>
    <g id="icons/vitamix/device/database-2-fill" stroke="none" stroke-width="1" fill="none" fill-rule="evenodd">
        <polygon id="path" points="0 0 24 0 24 24 0 24"></polygon>
        <path d="M21,9.5 L21,12.5 C21,14.985 16.97,17 12,17 C7.03,17 3,14.985 3,12.5 L3,9.5 C3,11.985 7.03,14 12,14 C16.97,14 21,11.985 21,9.5 Z M3,14.5 C3,16.985 7.03,19 12,19 C16.97,19 21,16.985 21,14.5 L21,17.5 C21,19.985 16.97,22 12,22 C7.03,22 3,19.985 3,17.5 L3,14.5 Z M12,12 C7.03,12 3,9.985 3,7.5 C3,5.015 7.03,3 12,3 C16.97,3 21,5.015 21,7.5 C21,9.985 16.97,12 12,12 Z" id="shape" fill="#001018" fill-rule="nonzero"></path>
    </g>
</svg>