<?xml version="1.0" encoding="UTF-8"?>
<svg width="24px" height="24px" viewBox="0 0 24 24" version="1.1" xmlns="http://www.w3.org/2000/svg" xmlns:xlink="http://www.w3.org/1999/xlink">
    <title>icons/vitamix/device/smartphone-fill</title>
    <g id="icons/vitamix/device/smartphone-fill" stroke="none" stroke-width="1" fill="none" fill-rule="evenodd">
        <rect id="path" fill-rule="nonzero" x="0" y="0" width="24" height="24"></rect>
        <path d="M6,2 L18,2 C18.5522847,2 19,2.44771525 19,3 L19,21 C19,21.5522847 18.5522847,22 18,22 L6,22 C5.44771525,22 5,21.5522847 5,21 L5,3 C5,2.44771525 5.44771525,2 6,2 Z M12,17 C11.4477153,17 11,17.4477153 11,18 C11,18.5522847 11.4477153,19 12,19 C12.5522847,19 13,18.5522847 13,18 C13,17.4477153 12.5522847,17 12,17 Z" id="shape" fill="#001018" fill-rule="nonzero"></path>
    </g>
</svg>