<?xml version="1.0" encoding="UTF-8"?>
<svg width="24px" height="24px" viewBox="0 0 24 24" version="1.1" xmlns="http://www.w3.org/2000/svg" xmlns:xlink="http://www.w3.org/1999/xlink">
    <title>icons/vitamix/media/camera-3-line</title>
    <g id="icons/vitamix/media/camera-3-line" stroke="none" stroke-width="1" fill="none" fill-rule="evenodd">
        <rect id="path" fill-rule="nonzero" x="0" y="0" width="24" height="24"></rect>
        <path d="M1.99998185,6 C1.99998185,5.448 2.455,5 2.992,5 L21.008,5 C21.556,5 22,5.445 22,6 L22,20 C22,20.552 21.545,21 21.008,21 L2.992,21 C2.72767873,20.999473 2.4744523,20.8936906 2.28830068,20.7060377 C2.10214907,20.5183849 1.99840397,20.264317 1.99998185,20 L1.99998185,6 Z M4,7 L4,19 L20,19 L20,7 L4,7 Z M14,16 C15.6568542,16 17,14.6568542 17,13 C17,11.3431458 15.6568542,10 14,10 C12.3431458,10 11,11.3431458 11,13 C11,14.6568542 12.3431458,16 14,16 L14,16 Z M14,18 C11.2385763,18 9,15.7614237 9,13 C9,10.2385763 11.2385763,8 14,8 C16.7614237,8 19,10.2385763 19,13 C19,15.7614237 16.7614237,18 14,18 L14,18 Z M4,2 L10,2 L10,4 L4,4 L4,2 Z" id="shape" fill="#001018" fill-rule="nonzero"></path>
    </g>
</svg>