<?xml version="1.0" encoding="UTF-8"?>
<svg width="24px" height="24px" viewBox="0 0 24 24" version="1.1" xmlns="http://www.w3.org/2000/svg" xmlns:xlink="http://www.w3.org/1999/xlink">
    <title>icons/vitamix/media/equalizer-fill</title>
    <g id="icons/vitamix/media/equalizer-fill" stroke="none" stroke-width="1" fill="none" fill-rule="evenodd">
        <rect id="path" fill-rule="nonzero" x="0" y="0" width="24" height="24"></rect>
        <path d="M6.17,18.0024506 C6.59339932,16.8024899 7.72753287,16 9,16 C10.2724671,16 11.4066007,16.8024899 11.83,18.0024506 L22,18.0024506 L22,20.0024506 L11.83,20.0024506 C11.4066007,21.2024112 10.2724671,22.0049011 9,22.0049011 C7.72753287,22.0049011 6.59339932,21.2024112 6.17,20.0024506 L2,20.0024506 L2,18.0024506 L6.17,18.0024506 L6.17,18.0024506 Z M12.17,11.0024506 C12.5933993,9.80248988 13.7275329,9 15,9 C16.2724671,9 17.4066007,9.80248988 17.83,11.0024506 L22,11.0024506 L22,13.0024506 L17.83,13.0024506 C17.4066007,14.2024112 16.2724671,15.0049011 15,15.0049011 C13.7275329,15.0049011 12.5933993,14.2024112 12.17,13.0024506 L2,13.0024506 L2,11.0024506 L12.17,11.0024506 L12.17,11.0024506 Z M6.17,4.00245055 C6.59339932,2.80248988 7.72753287,2 9,2 C10.2724671,2 11.4066007,2.80248988 11.83,4.00245055 L22,4.00245055 L22,6.00245055 L11.83,6.00245055 C11.4066007,7.20241123 10.2724671,8.0049011 9,8.0049011 C7.72753287,8.0049011 6.59339932,7.20241123 6.17,6.00245055 L2,6.00245055 L2,4.00245055 L6.17,4.00245055 Z" id="shape" fill="#001018" fill-rule="nonzero"></path>
    </g>
</svg>