<?xml version="1.0" encoding="UTF-8"?>
<svg width="24px" height="24px" viewBox="0 0 24 24" version="1.1" xmlns="http://www.w3.org/2000/svg" xmlns:xlink="http://www.w3.org/1999/xlink">
    <title>icons/vitamix/media/film-fill</title>
    <g id="icons/vitamix/media/film-fill" stroke="none" stroke-width="1" fill="none" fill-rule="evenodd">
        <rect id="path" fill-rule="nonzero" x="0" y="0" width="24" height="24"></rect>
        <path d="M2,3.993 C2.00380782,3.44655554 2.44555966,3.00435839 2.992,3 L21.008,3 C21.556,3 22,3.445 22,3.993 L22,20.007 C21.9961922,20.5534445 21.5544403,20.9956416 21.008,21 L2.992,21 C2.44397181,20.9994481 2,20.5550285 2,20.007 L2,3.993 Z M4,5 L4,7 L6,7 L6,5 L4,5 Z M18,5 L18,7 L20,7 L20,5 L18,5 Z M4,9 L4,11 L6,11 L6,9 L4,9 Z M18,9 L18,11 L20,11 L20,9 L18,9 Z M4,13 L4,15 L6,15 L6,13 L4,13 Z M18,13 L18,15 L20,15 L20,13 L18,13 Z M4,17 L4,19 L6,19 L6,17 L4,17 Z M18,17 L18,19 L20,19 L20,17 L18,17 Z" id="shape" fill="#001018" fill-rule="nonzero"></path>
    </g>
</svg>