<?xml version="1.0" encoding="UTF-8"?>
<svg width="24px" height="24px" viewBox="0 0 24 24" version="1.1" xmlns="http://www.w3.org/2000/svg" xmlns:xlink="http://www.w3.org/1999/xlink">
    <title>icons/vitamix/media/fullscreen-line</title>
    <g id="icons/vitamix/media/fullscreen-line" stroke="none" stroke-width="1" fill="none" fill-rule="evenodd">
        <rect id="path" fill-rule="nonzero" x="0" y="0" width="24" height="24"></rect>
        <path d="M20,3 L22,3 L22,9 L20,9 L20,5 L16,5 L16,3 L20,3 Z M4,3 L8,3 L8,5 L4,5 L4,9 L2,9 L2,3 L4,3 Z M20,19 L20,15 L22,15 L22,21 L16,21 L16,19 L20,19 Z M4,19 L8,19 L8,21 L2,21 L2,15 L4,15 L4,19 Z" id="shape" fill="#001018" fill-rule="nonzero"></path>
    </g>
</svg>