<?xml version="1.0" encoding="UTF-8"?>
<svg width="24px" height="24px" viewBox="0 0 24 24" version="1.1" xmlns="http://www.w3.org/2000/svg" xmlns:xlink="http://www.w3.org/1999/xlink">
    <title>icons/vitamix/media/image-line</title>
    <g id="icons/vitamix/media/image-line" stroke="none" stroke-width="1" fill="none" fill-rule="evenodd">
        <rect id="path" fill-rule="nonzero" x="0" y="0" width="24" height="24"></rect>
        <path d="M4.828,21 L4.808,21.02 L4.787,21 L2.992,21 C2.44397181,20.9994481 2,20.5550285 2,20.007 L2,3.993 C2.00380782,3.44655554 2.44555966,3.00435839 2.992,3 L21.008,3 C21.556,3 22,3.445 22,3.993 L22,20.007 C21.9961922,20.5534445 21.5544403,20.9956416 21.008,21 L4.828,21 L4.828,21 Z M20,15 L20,5 L4,5 L4,19 L14,9 L20,15 Z M20,17.828 L14,11.828 L6.828,19 L20,19 L20,17.828 Z M8,11 C6.8954305,11 6,10.1045695 6,9 C6,7.8954305 6.8954305,7 8,7 C9.1045695,7 10,7.8954305 10,9 C10,10.1045695 9.1045695,11 8,11 Z" id="shape" fill="#001018" fill-rule="nonzero"></path>
    </g>
</svg>