<?xml version="1.0" encoding="UTF-8"?>
<svg width="24px" height="24px" viewBox="0 0 24 24" version="1.1" xmlns="http://www.w3.org/2000/svg" xmlns:xlink="http://www.w3.org/1999/xlink">
    <title>icons/vitamix/media/music-2-fill</title>
    <g id="icons/vitamix/media/music-2-fill" stroke="none" stroke-width="1" fill="none" fill-rule="evenodd">
        <rect id="path" fill-rule="nonzero" x="0" y="0" width="24" height="24"></rect>
        <path d="M20,3 L20,17 C19.9995934,18.8103392 18.7833578,20.3947236 17.0346255,20.8629793 C15.2858932,21.331235 13.4406675,20.5666141 12.535674,18.9987127 C11.6306804,17.4308114 11.8915567,15.4505471 13.1717317,14.1705158 C14.4519067,12.8904845 16.4322002,12.6298304 18,13.535 L18,6 L9,6 L9,17 C8.99959343,18.8103392 7.7833578,20.3947236 6.03462551,20.8629793 C4.28589321,21.331235 2.44066753,20.5666141 1.53567396,18.9987127 C0.630680379,17.4308114 0.891556744,15.4505471 2.17173172,14.1705158 C3.4519067,12.8904845 5.43220022,12.6298304 7,13.535 L7,3 L20,3 Z" id="shape" fill="#001018" fill-rule="nonzero"></path>
    </g>
</svg>