<?xml version="1.0" encoding="UTF-8"?>
<svg width="24px" height="24px" viewBox="0 0 24 24" version="1.1" xmlns="http://www.w3.org/2000/svg" xmlns:xlink="http://www.w3.org/1999/xlink">
    <title>icons/vitamix/media/volume-down-fill</title>
    <g id="icons/vitamix/media/volume-down-fill" stroke="none" stroke-width="1" fill="none" fill-rule="evenodd">
        <rect id="path" fill-rule="nonzero" x="0" y="0" width="24" height="24"></rect>
        <path d="M8.889,16 L5,16 C4.44771525,16 4,15.5522847 4,15 L4,9 C4,8.44771525 4.44771525,8 5,8 L8.889,8 L14.183,3.668 C14.3325193,3.5454198 14.5393109,3.52002955 14.7140433,3.60279751 C14.8887757,3.68556548 15.000129,3.86165595 15,4.055 L15,19.945 C15.000129,20.1383441 14.8887757,20.3144345 14.7140433,20.3972025 C14.5393109,20.4799705 14.3325193,20.4545802 14.183,20.332 L8.89,16 L8.889,16 Z M18.863,16.591 L17.441,15.169 C18.4249639,14.41239 19.0011218,13.2412262 19,12 C19,10.57 18.25,9.315 17.12,8.608 L18.559,7.169 C20.0951941,8.29903839 21.001614,10.0929404 21.0000022,12 C21.0000022,13.842 20.17,15.49 18.863,16.591 L18.863,16.591 Z" id="shape" fill="#001018" fill-rule="nonzero"></path>
    </g>
</svg>