<?xml version="1.0" encoding="UTF-8"?>
<svg width="24px" height="24px" viewBox="0 0 24 24" version="1.1" xmlns="http://www.w3.org/2000/svg" xmlns:xlink="http://www.w3.org/1999/xlink">
    <title>icons/vitamix/media/volume-up-line</title>
    <g id="icons/vitamix/media/volume-up-line" stroke="none" stroke-width="1" fill="none" fill-rule="evenodd">
        <rect id="path" fill-rule="nonzero" x="0" y="0" width="24" height="24"></rect>
        <path d="M10,7.22 L6.603,10 L3,10 L3,14 L6.603,14 L10,16.78 L10,7.22 Z M5.889,16 L2,16 C1.44771525,16 1,15.5522847 1,15 L1,9 C1,8.44771525 1.44771525,8 2,8 L5.889,8 L11.183,3.668 C11.3325193,3.5454198 11.5393109,3.52002955 11.7140433,3.60279751 C11.8887757,3.68556548 12.000129,3.86165595 12,4.055 L12,19.945 C12.000129,20.1383441 11.8887757,20.3144345 11.7140433,20.3972025 C11.5393109,20.4799705 11.3325193,20.4545802 11.183,20.332 L5.89,16 L5.889,16 Z M19.406,20.134 L17.99,18.718 C19.9074824,17.0118641 21.0030661,14.5666377 21,12 C21.0025122,9.29866835 19.7891109,6.73965501 17.696,5.032 L19.116,3.612 C21.5822919,5.6999399 23.0032023,8.76857946 23.0000054,12 C23.0000054,15.223 21.614,18.122 19.406,20.134 L19.406,20.134 Z M15.863,16.591 L14.441,15.169 C15.4249639,14.41239 16.0011218,13.2412262 16,12 C16,10.57 15.25,9.315 14.12,8.608 L15.559,7.169 C17.0951941,8.29903839 18.001614,10.0929404 18.0000022,12 C18.0000022,13.842 17.17,15.49 15.863,16.591 Z" id="shape" fill="#001018" fill-rule="nonzero"></path>
    </g>
</svg>