<?xml version="1.0" encoding="UTF-8"?>
<svg width="24px" height="24px" viewBox="0 0 24 24" version="1.1" xmlns="http://www.w3.org/2000/svg" xmlns:xlink="http://www.w3.org/1999/xlink">
    <title>icons/vitamix/buildings/store-3-line</title>
    <g id="icons/vitamix/buildings/store-3-line" stroke="none" stroke-width="1" fill="none" fill-rule="evenodd">
        <rect id="path" fill-rule="nonzero" x="0" y="0" width="24" height="24"></rect>
        <path d="M21,13 L21,20 C21,20.5522847 20.5522847,21 20,21 L4,21 C3.44771525,21 3,20.5522847 3,20 L3,13 L2,13 L2,11 L3,6 L21,6 L22,11 L22,13 L21,13 Z M5,13 L5,19 L19,19 L19,13 L5,13 Z M4.04,11 L19.96,11 L19.36,8 L4.64,8 L4.04,11 Z M6,14 L14,14 L14,17 L6,17 L6,14 Z M3,3 L21,3 L21,5 L3,5 L3,3 Z" id="shape" fill="#001018" fill-rule="nonzero"></path>
    </g>
</svg>