<?xml version="1.0" encoding="UTF-8"?>
<svg width="24px" height="24px" viewBox="0 0 24 24" version="1.1" xmlns="http://www.w3.org/2000/svg" xmlns:xlink="http://www.w3.org/1999/xlink">
    <title>icons/vitamix/communication/message-2-line</title>
    <g id="icons/vitamix/communication/message-2-line" stroke="none" stroke-width="1" fill="none" fill-rule="evenodd">
        <polygon id="path" points="0 0 24 0 24 24 0 24"></polygon>
        <path d="M6.455,19 L2,22.5 L2,4 C2,3.44771525 2.44771525,3 3,3 L21,3 C21.5522847,3 22,3.44771525 22,4 L22,18 C22,18.5522847 21.5522847,19 21,19 L6.455,19 Z M5.763,17 L20,17 L20,5 L4,5 L4,18.385 L5.763,17 Z M11,10 L13,10 L13,12 L11,12 L11,10 Z M7,10 L9,10 L9,12 L7,12 L7,10 Z M15,10 L17,10 L17,12 L15,12 L15,10 Z" id="shape" fill="#000000" fill-rule="nonzero"></path>
    </g>
</svg>