<?xml version="1.0" encoding="UTF-8"?>
<svg width="24px" height="24px" viewBox="0 0 24 24" version="1.1" xmlns="http://www.w3.org/2000/svg" xmlns:xlink="http://www.w3.org/1999/xlink">
    <title>icons/vitamix/logos/amazon-line</title>
    <g id="icons/vitamix/logos/amazon-line" stroke="none" stroke-width="1" fill="none" fill-rule="evenodd">
        <rect id="path" fill-rule="nonzero" x="0" y="0" width="24" height="24"></rect>
        <path d="M15.625,14.62 C14.518,16.239 12.897,17.004 11,17.004 C8.696,17.004 6.724,15.231 7.007,12.88 C7.322,10.272 9.347,9.15 12.715,8.737 C13.316,8.664 13.565,8.643 14.862,8.547 L15,8.537 L15,8.322 C15,6.526 13.932,5.3 12.5,5.3 C11.063,5.3 10.06,6.047 9.445,7.826 L7.555,7.174 C8.442,4.604 10.193,3.3 12.5,3.3 C15.103,3.3 17,5.478 17,8.322 C17,10.971 17.163,13.078 17.483,13.879 C17.839,14.771 17.969,14.996 18.367,15.492 L16.807,16.743 C16.284,16.091 16.054,15.694 15.626,14.621 L15.626,14.62 L15.625,14.62 Z M21.257,20.545 C20.986,20.745 20.515,20.626 20.728,20.105 C20.993,19.457 21.275,18.697 20.99,18.353 C20.78,18.098 20.523,17.971 19.963,17.971 C19.503,17.971 19.273,18.031 18.968,18.051 C18.764,18.064 18.675,17.754 18.877,17.611 C19.1415039,17.421484 19.4354465,17.2768778 19.747,17.183 C20.897,16.839 22.252,17.028 22.417,17.266 C22.782,17.796 22.218,19.835 21.257,20.546 L21.257,20.545 Z M20.075,19.461 C19.8153084,19.7122159 19.5379298,19.9444786 19.245,20.156 C17.123,21.772 14.375,22.616 11.987,22.616 C8.144,22.616 4.707,20.823 2.099,17.821 C1.876,17.591 2.061,17.255 2.322,17.437 C5.132,19.514 8.61,20.77 12.211,20.77 C14.476,20.77 16.919,20.233 19.246,19.077 C19.408,19.001 19.59,18.897 19.749,18.823 C20.116,18.613 20.439,19.129 20.075,19.461 L20.075,19.461 Z M15.01,10.541 C13.752,10.635 13.514,10.654 12.958,10.722 C10.406,11.035 9.161,11.725 8.993,13.12 C8.867,14.163 9.803,15.004 11,15.004 C13.039,15.004 14.517,13.776 15.022,10.541 L15.01,10.541 L15.01,10.541 Z" id="shape" fill="#001018" fill-rule="nonzero"></path>
    </g>
</svg>