<?xml version="1.0" encoding="UTF-8"?>
<svg width="24px" height="24px" viewBox="0 0 24 24" version="1.1" xmlns="http://www.w3.org/2000/svg" xmlns:xlink="http://www.w3.org/1999/xlink">
    <title>icons/vitamix/logos/android-line</title>
    <g id="icons/vitamix/logos/android-line" stroke="none" stroke-width="1" fill="none" fill-rule="evenodd">
        <rect id="path" fill-rule="nonzero" x="0" y="0" width="24" height="24"></rect>
        <path d="M19,13 L5,13 L5,20 L19,20 L19,13 Z M19,11.0000001 C19,7.13400679 15.8659932,4.0000001 12,4.0000001 C8.13400679,4.0000001 5,7.13400679 5,11.0000001 L19,11.0000001 L19,11.0000001 Z M6.382,3.968 C7.97574183,2.69106522 9.95780391,1.99674373 12,1.9999886 C14.125,1.9999886 16.078,2.736 17.618,3.968 L19.071,2.515 L20.485,3.929 L19.032,5.382 C20.3089348,6.97574183 21.0032563,8.95780391 21.0000114,11 L21.0000114,21 C21.0000114,21.5522847 20.5522847,22 20,22 L4,22 C3.44771525,22 3,21.5522847 3,21 L3,11 C3,8.875 3.736,6.922 4.968,5.382 L3.515,3.93 L4.929,2.516 L6.382,3.969 L6.382,3.968 Z M9,9 C8.44771525,9 8,8.55228475 8,8 C8,7.44771525 8.44771525,7 9,7 C9.55228475,7 10,7.44771525 10,8 C10,8.55228475 9.55228475,9 9,9 Z M15,9 C14.4477153,9 14,8.55228475 14,8 C14,7.44771525 14.4477153,7 15,7 C15.5522847,7 16,7.44771525 16,8 C16,8.55228475 15.5522847,9 15,9 Z" id="shape" fill="#001018" fill-rule="nonzero"></path>
    </g>
</svg>