<?xml version="1.0" encoding="UTF-8"?>
<svg width="24px" height="24px" viewBox="0 0 24 24" version="1.1" xmlns="http://www.w3.org/2000/svg" xmlns:xlink="http://www.w3.org/1999/xlink">
    <title>icons/vitamix/logos/apple-fill</title>
    <g id="icons/vitamix/logos/apple-fill" stroke="none" stroke-width="1" fill="none" fill-rule="evenodd">
        <rect id="path" fill-rule="nonzero" x="0" y="0" width="24" height="24"></rect>
        <path d="M11.624,7.222 C10.748,7.222 9.392,6.226 7.964,6.262 C6.08,6.286 4.352,7.354 3.38,9.046 C1.424,12.442 2.876,17.458 4.784,20.218 C5.72,21.562 6.824,23.074 8.288,23.026 C9.692,22.966 10.22,22.114 11.924,22.114 C13.616,22.114 14.096,23.026 15.584,22.99 C17.096,22.966 18.056,21.622 18.98,20.266 C20.048,18.706 20.492,17.194 20.516,17.11 C20.48,17.098 17.576,15.982 17.54,12.622 C17.516,9.814 19.832,8.47 19.94,8.41 C18.62,6.478 16.592,6.262 15.884,6.214 C14.036,6.07 12.488,7.222 11.624,7.222 Z M14.744,4.39 C15.524,3.454 16.04,2.146 15.896,0.85 C14.78,0.898 13.436,1.594 12.632,2.53 C11.912,3.358 11.288,4.69 11.456,5.962 C12.692,6.058 13.964,5.326 14.744,4.39 L14.744,4.39 Z" id="shape" fill="#001018" fill-rule="nonzero"></path>
    </g>
</svg>