<?xml version="1.0" encoding="UTF-8"?>
<svg width="24px" height="24px" viewBox="0 0 24 24" version="1.1" xmlns="http://www.w3.org/2000/svg" xmlns:xlink="http://www.w3.org/1999/xlink">
    <title>icons/vitamix/logos/apple-line</title>
    <g id="icons/vitamix/logos/apple-line" stroke="none" stroke-width="1" fill="none" fill-rule="evenodd">
        <rect id="path" fill-rule="nonzero" x="0" y="0" width="24" height="24"></rect>
        <path d="M15.729,8.208 C15.256,8.171 14.748,8.284 13.97,8.581 C14.036,8.556 13.228,8.871 13.002,8.951 C12.5,9.126 12.087,9.222 11.624,9.222 C11.166,9.222 10.744,9.13 10.258,8.967 C10.103,8.914 9.947,8.857 9.753,8.781 C9.671,8.749 9.371,8.629 9.305,8.604 C8.657,8.35 8.292,8.254 7.989,8.262 C6.837,8.277 5.746,8.942 5.113,10.044 C3.821,12.288 4.536,16.343 6.425,19.075 C7.431,20.519 7.981,21.035 8.203,21.0280701 C8.425,21.018 8.588,20.971 8.986,20.803 L9.153,20.732 C10.158,20.303 10.863,20.114 11.924,20.114 C12.945,20.114 13.627,20.3 14.592,20.716 L14.76,20.788 C15.158,20.958 15.302,20.996 15.552,20.99 C15.91,20.985 16.351,20.573 17.33,19.136 C17.598,18.745 17.835,18.333 18.04,17.916 C17.9052564,17.8050224 17.7745069,17.6892825 17.648,17.569 C16.359,16.341 15.562,14.685 15.54,12.639 C15.5184577,11.1251627 16.0160714,9.64961444 16.95,8.458 C16.5580152,8.31329217 16.1463148,8.22899642 15.729,8.208 L15.729,8.208 Z M15.884,6.214 C16.592,6.262 18.62,6.478 19.94,8.41 C19.832,8.47 17.516,9.814 17.54,12.622 C17.576,15.982 20.48,17.098 20.516,17.11 C20.492,17.194 20.048,18.706 18.98,20.266 C18.056,21.622 17.096,22.966 15.584,22.99 C14.096,23.026 13.616,22.114 11.924,22.114 C10.22,22.114 9.692,22.966 8.288,23.026 C6.824,23.074 5.72,21.562 4.784,20.218 C2.876,17.458 1.424,12.442 3.38,9.046 C4.352,7.354 6.08,6.286 7.964,6.262 C9.392,6.226 10.748,7.222 11.624,7.222 C12.488,7.222 14.036,6.07 15.884,6.214 L15.884,6.214 Z M14.744,4.39 C13.964,5.326 12.692,6.058 11.456,5.962 C11.288,4.69 11.912,3.358 12.632,2.53 C13.436,1.594 14.78,0.898 15.896,0.85 C16.04,2.146 15.524,3.454 14.744,4.39 Z" id="shape" fill="#001018" fill-rule="nonzero"></path>
    </g>
</svg>