<?xml version="1.0" encoding="UTF-8"?>
<svg width="24px" height="24px" viewBox="0 0 24 24" version="1.1" xmlns="http://www.w3.org/2000/svg" xmlns:xlink="http://www.w3.org/1999/xlink">
    <title>icons/vitamix/logos/chrome-line</title>
    <g id="icons/vitamix/logos/chrome-line" stroke="none" stroke-width="1" fill="none" fill-rule="evenodd">
        <rect id="path" fill-rule="nonzero" x="0" y="0" width="24" height="24"></rect>
        <path d="M10.365,19.833 L12.295,16.491 C10.5541957,16.6055044 8.90412248,15.7033033 8.061,14.176 L4.794,8.52 C3.72338047,10.7377555 3.73341894,13.324925 4.8212162,15.5343057 C5.90901345,17.7436864 7.95342407,19.3292247 10.364,19.833 L10.365,19.833 Z M12.59,19.979 C15.0460831,19.7982506 17.2820383,18.4963559 18.6516261,16.4495916 C20.0212139,14.4028274 20.3717788,11.8393279 19.602,9.5 L15.742,9.5 C16.2374188,10.2395245 16.501307,11.1098683 16.5,12 C16.5012967,12.8167424 16.2792951,13.6182999 15.858,14.318 L12.59,19.978 L12.59,19.979 Z M14.143,13.288 L14.165,13.25 C14.7684946,12.2045572 14.5387847,10.8772064 13.6190631,10.0953697 C12.6993415,9.31353298 11.3523234,9.30053924 10.4176906,10.0644883 C9.48305793,10.8284373 9.22778512,12.1511098 9.811,13.208 L9.835,13.25 C10.2772168,14.0173276 11.0925325,14.4932844 11.9781319,14.5010961 C12.8637314,14.5089078 13.6873161,14.0474074 14.143,13.288 L14.143,13.288 Z M6.035,6.668 L7.964,10.008 C8.72230408,8.47194381 10.2869636,7.49965288 12,7.4999949 L18.615,7.4999949 C17.1262352,5.30922663 14.6487555,3.99839084 12,3.9999949 C9.72184246,3.99742579 7.55120186,4.96866464 6.035,6.669 L6.035,6.668 Z M12,22 C6.477,22 2,17.523 2,12 C2,6.477 6.477,2 12,2 C17.523,2 22,6.477 22,12 C22,17.523 17.523,22 12,22 Z" id="shape" fill="#001018" fill-rule="nonzero"></path>
    </g>
</svg>