<?xml version="1.0" encoding="UTF-8"?>
<svg width="24px" height="24px" viewBox="0 0 24 24" version="1.1" xmlns="http://www.w3.org/2000/svg" xmlns:xlink="http://www.w3.org/1999/xlink">
    <title>icons/vitamix/logos/chrome-fill</title>
    <g id="icons/vitamix/logos/chrome-fill" stroke="none" stroke-width="1" fill="none" fill-rule="evenodd">
        <rect id="path" fill-rule="nonzero" x="0" y="0" width="24" height="24"></rect>
        <path d="M9.827,21.763 C5.35,20.771 2,16.777 2,12 C2,10.178 2.487,8.47 3.339,6.998 L7.622,14.417 C8.60636306,16.201085 10.5750538,17.2091685 12.598,16.965 L9.828,21.763 L9.827,21.763 Z M12,22 L16.287,14.575 C16.7549278,13.7976989 17.0014796,12.9072768 17,12 C17.0015945,10.9178908 16.6505411,9.86473067 16,9 L21.542,9 C21.84,9.947 22,10.955 22,12 C22,17.523 17.523,22 12,22 L12,22 Z M14.572,13.545 C14.0252552,14.4564376 13.0369385,15.0104087 11.9741297,15.0011579 C10.9113208,14.9919072 9.93279674,14.4208165 9.402,13.5 L9.373,13.45 C8.67315318,12.181783 8.97941628,10.594631 10.1008865,9.67786252 C11.2223567,8.76109403 12.8387135,8.77656156 13.9424342,9.71462374 C15.0461548,10.6526859 15.3219885,12.2454082 14.598,13.5 L14.572,13.545 Z M4.632,5.239 C6.52401884,3.17233862 9.19806952,1.99681607 12,1.99999355 C15.5735008,1.9985503 18.8759647,3.90484444 20.662,6.99999355 L12,6.99999355 C9.9976469,6.99974072 8.1881678,8.19386316 7.401,10.035 L4.632,5.239 Z" id="shape" fill="#001018" fill-rule="nonzero"></path>
    </g>
</svg>