<?xml version="1.0" encoding="UTF-8"?>
<svg width="24px" height="24px" viewBox="0 0 24 24" version="1.1" xmlns="http://www.w3.org/2000/svg" xmlns:xlink="http://www.w3.org/1999/xlink">
    <title>icons/vitamix/logos/facebook-line</title>
    <g id="icons/vitamix/logos/facebook-line" stroke="none" stroke-width="1" fill="none" fill-rule="evenodd">
        <rect id="path" fill-rule="nonzero" x="0" y="0" width="24" height="24"></rect>
        <path d="M13,9 L17.5,9 L17,11 L13,11 L13,20 L11,20 L11,11 L7,11 L7,9 L11,9 L11,7.128 C11,5.345 11.186,4.698 11.534,4.046 C11.8750093,3.40180701 12.401807,2.87500931 13.046,2.534 C13.698,2.186 14.345,2 16.128,2 C16.65,2 17.108,2.05 17.5,2.15 L17.5,4 L16.128,4 C14.804,4 14.401,4.078 13.99,4.298 C13.686,4.46 13.46,4.686 13.298,4.99 C13.078,5.401 13,5.804 13,7.128 L13,9 Z" id="shape" fill="#001018" fill-rule="nonzero"></path>
    </g>
</svg>