<?xml version="1.0" encoding="UTF-8"?>
<svg width="24px" height="24px" viewBox="0 0 24 24" version="1.1" xmlns="http://www.w3.org/2000/svg" xmlns:xlink="http://www.w3.org/1999/xlink">
    <title>icons/vitamix/logos/firefox-fill</title>
    <g id="icons/vitamix/logos/firefox-fill" stroke="none" stroke-width="1" fill="none" fill-rule="evenodd">
        <rect id="path" fill-rule="nonzero" x="0" y="0" width="24" height="24"></rect>
        <path d="M12,2 C17.523,2 22,6.477 22,12 C22,17.523 17.523,22 12,22 C6.477,22 2,17.523 2,12 C2,10.536 2.314,9.146 2.88,7.894 C3.346,6.955 4.113,6.02 4.73,5.7 C4.077,6.983 3.757,8.24 3.69,9.083 C4.144,7.583 5.005,6.326 6.21,5.439 C8.276,3.92 11.058,3.852 12.166,4.819 C10.11,5.526 7.87,8.367 8.363,11.695 C8.443,12.245 8.608,12.779 8.852,13.277 C8.468,12.267 8.434,10.844 9.054,9.919 C9.746,8.889 10.732,8.671 11.26,8.783 C11.052,8.739 10.592,9.619 10.524,9.774 C10.351,10.168 10.265,10.594 10.273,11.024 C10.2878696,11.9223737 10.6582564,12.7782188 11.303,13.404 C13.225,15.275 16.326,14.539 17.715,12.402 C18.668,10.931 18.784,8.434 17.56,6.45 C17.2546056,5.96689328 16.8904953,5.52351175 16.476,5.13 C14.626,3.364 11.996,2.56 9.494,2.925 C8.388,3.102 7.447,3.421 6.67,3.881 C7.755,2.798 9.91,2 12,2 Z" id="shape" fill="#001018" fill-rule="nonzero"></path>
    </g>
</svg>