<?xml version="1.0" encoding="UTF-8"?>
<svg width="24px" height="24px" viewBox="0 0 24 24" version="1.1" xmlns="http://www.w3.org/2000/svg" xmlns:xlink="http://www.w3.org/1999/xlink">
    <title>icons/vitamix/logos/google-line</title>
    <g id="icons/vitamix/logos/google-line" stroke="none" stroke-width="1" fill="none" fill-rule="evenodd">
        <rect id="path" fill-rule="nonzero" x="0" y="0" width="24" height="24"></rect>
        <path d="M11.9999991,10.9999991 L20.533,10.9999991 C20.577,11.385 20.6,11.78 20.6,12.184 C20.6,14.918 19.62,17.22 17.922,18.784 C16.437,20.155 14.404,20.9590009 11.98,20.9590009 C9.59820393,20.9600615 7.31364055,20.0144353 5.62936246,18.3303448 C3.94508436,16.6462542 2.99920371,14.3617962 2.99999911,11.98 C2.99893828,9.5980306 3.94470175,7.31331553 5.62900864,5.62900864 C7.31331553,3.94470175 9.5980306,2.99893828 11.98,2.99999911 C14.4,2.99999911 16.433,3.89 17.988,5.339 L16.526,6.8 C15.368,5.681 13.803,4.99999911 11.9999991,4.99999911 C9.49914085,4.99999911 7.18825167,6.33419242 5.93782209,8.49999911 C4.6873925,10.6658075 4.6873925,13.3341925 5.93782209,15.4999991 C7.18825167,17.6658076 9.49914085,18.9999991 11.9999991,18.9999991 C15.526,18.9999991 18.144,16.392 18.577,12.9999991 L11.9999991,12.9999991 L11.9999991,10.9999991 Z" id="shape" fill="#001018" fill-rule="nonzero"></path>
    </g>
</svg>