<?xml version="1.0" encoding="UTF-8"?>
<svg width="24px" height="24px" viewBox="0 0 24 24" version="1.1" xmlns="http://www.w3.org/2000/svg" xmlns:xlink="http://www.w3.org/1999/xlink">
    <title>icons/vitamix/logos/google-fill</title>
    <g id="icons/vitamix/logos/google-fill" stroke="none" stroke-width="1" fill="none" fill-rule="evenodd">
        <rect id="path" fill-rule="nonzero" x="0" y="0" width="24" height="24"></rect>
        <path d="M3.064,7.51 C4.76085024,4.1311075 8.21896656,1.99880882 11.9999992,1.9999995 C14.695,1.9999995 16.959,2.99 18.69,4.605 L15.823,7.473 C14.786,6.482 13.468,5.977 11.9999992,5.977 C9.395,5.977 7.19,7.737 6.405,10.1 C6.205,10.7 6.091,11.34 6.091,11.9999995 C6.091,12.66 6.205,13.3 6.405,13.9 C7.191,16.264 9.395,18.023 11.9999992,18.023 C13.345,18.023 14.49,17.668 15.386,17.068 C16.4356676,16.3768984 17.1568704,15.2864224 17.382,14.05 L11.9999992,14.05 L11.9999992,10.182 L21.418,10.182 C21.536,10.836 21.6,11.518 21.6,12.227 C21.6,15.273 20.51,17.837 18.618,19.577 C16.964,21.105 14.7,21.9999995 11.9999992,21.9999995 C9.34750979,22.0010616 6.80335378,20.9478342 4.92775981,19.0722402 C3.05216585,17.1966462 1.99893837,14.6524902 1.9999992,11.9999995 C1.9999992,10.386 2.386,8.86 3.064,7.51 L3.064,7.51 Z" id="shape" fill="#001018" fill-rule="nonzero"></path>
    </g>
</svg>