<?xml version="1.0" encoding="UTF-8"?>
<svg width="24px" height="24px" viewBox="0 0 24 24" version="1.1" xmlns="http://www.w3.org/2000/svg" xmlns:xlink="http://www.w3.org/1999/xlink">
    <title>icons/vitamix/logos/ie-fill</title>
    <g id="icons/vitamix/logos/ie-fill" stroke="none" stroke-width="1" fill="none" fill-rule="evenodd">
        <rect id="path" fill-rule="nonzero" x="0" y="0" width="24" height="24"></rect>
        <path d="M8.612,20.12 C5.868,21.61 3.499,21.919 2.19,20.61 C0.846,19.27 1.562,15.759 3.503,12.237 C4.48905504,10.4454692 5.70761023,8.79214804 7.127,7.32 C7.314,7.133 8.252,6.196 8.314,6.196 C8.314,6.196 7.814,6.509 7.752,6.509 C5.802,7.604 4.089,9.589 3.715,10.034 C4.69287207,5.67085866 8.72446377,2.68633962 13.183,3.025 C16.278,1.623 19.157,1.299 20.375,2.515 C21.5000106,3.638 21.437,5.51 20.5,7.757 C20.49,7.778 20.482,7.8 20.473,7.821 C21.149735,9.10988697 21.5022346,10.5442545 21.5000106,12 C21.5000106,12.38 21.477,12.753 21.431,13.12 L20.627,13.12 C20.5796875,13.121819 20.5323471,13.1228192 20.485,13.123 L8.689,13.123 L8.689,13.31 C8.751,15.307 10.501,17.054 12.626,17.054 C14.126,17.054 15.563,16.243 16.188,15.057 L20.968,15.057 C20.1040327,17.4500702 18.2678528,19.3658525 15.9135797,20.3305405 C13.5593066,21.2952284 10.9067742,21.2187429 8.612,20.12 L8.612,20.12 Z M8.005,19.799 C6.1640117,18.7352544 4.7574308,17.0559979 4.033,15.057 C2.872,17.339 2.573,19.247 3.564,20.237 C4.377,21.049 6.002,20.861 8.002,19.801 L8.005,19.799 Z M20.172,7.292 C20.1769743,7.28065534 20.1819743,7.26932198 20.187,7.258 C20.937,5.636 21,4.264 20.312,3.452 C19.443,2.584 17.772,2.702 15.79,3.62 C17.60974,4.33722436 19.1474731,5.625804 20.172,7.292 Z M16.563,10.752 L16.563,10.691 C16.438,8.631 14.813,7.071 12.813,7.071 C10.688,7.071 8.877,8.756 8.752,10.691 L8.752,10.753 L16.563,10.753 L16.563,10.752 Z" id="shape" fill="#001018" fill-rule="nonzero"></path>
    </g>
</svg>