<?xml version="1.0" encoding="UTF-8"?>
<svg width="24px" height="24px" viewBox="0 0 24 24" version="1.1" xmlns="http://www.w3.org/2000/svg" xmlns:xlink="http://www.w3.org/1999/xlink">
    <title>icons/vitamix/logos/ie-line</title>
    <g id="icons/vitamix/logos/ie-line" stroke="none" stroke-width="1" fill="none" fill-rule="evenodd">
        <rect id="path" fill-rule="nonzero" x="0" y="0" width="24" height="24"></rect>
        <path d="M18.159,10 C17.3117843,7.60081054 15.0438829,5.99651539 12.4995,5.99651539 C9.95511708,5.99651539 7.68721567,7.60081054 6.84,10 L18.16,10 L18.159,10 Z M6.583,13 C7.00423571,15.4820038 8.92963202,17.4373717 11.4048336,17.8968924 C13.8800353,18.3564131 16.3789706,17.2224216 17.663,15.057 L20.967,15.057 C20.1029989,17.4498026 18.266987,19.3653716 15.9129636,20.3300353 C13.5589403,21.2946991 10.9066729,21.2183982 8.612,20.12 C5.868,21.611 3.499,21.92 2.19,20.611 C0.846,19.271 1.562,15.76 3.503,12.238 C4.2192056,10.9406576 5.0558931,9.71358293 6.002,8.573 C6.361,8.14 6.737,7.721 7.127,7.321 C6.852,7.376 5.247,8.172 3.715,10.035 C4.69287207,5.67185866 8.72446377,2.68733962 13.183,3.026 C16.278,1.624 19.157,1.3 20.375,2.516 C21.5000091,3.639 21.437,5.511 20.5,7.758 C20.49,7.779 20.482,7.801 20.473,7.822 C21.1495773,9.1105876 21.5020721,10.5445927 21.5000091,12 C21.5000091,12.338 21.481,12.672 21.445,13 L6.583,13 Z M8.005,19.799 C6.1640117,18.7352544 4.7574308,17.0559979 4.033,15.057 C2.872,17.339 2.573,19.247 3.564,20.237 C4.377,21.049 6.002,20.861 8.002,19.801 L8.005,19.799 Z M20.172,7.292 C20.1769743,7.28065534 20.1819743,7.26932198 20.187,7.258 C20.937,5.636 21,4.264 20.312,3.452 C19.443,2.584 17.772,2.702 15.79,3.62 C17.60974,4.33722436 19.1474731,5.625804 20.172,7.292 Z" id="shape" fill="#001018" fill-rule="nonzero"></path>
    </g>
</svg>