<?xml version="1.0" encoding="UTF-8"?>
<svg width="24px" height="24px" viewBox="0 0 24 24" version="1.1" xmlns="http://www.w3.org/2000/svg" xmlns:xlink="http://www.w3.org/1999/xlink">
    <title>icons/vitamix/logos/instagram-line</title>
    <g id="icons/vitamix/logos/instagram-line" stroke="none" stroke-width="1" fill="none" fill-rule="evenodd">
        <rect id="path" fill-rule="nonzero" x="0" y="0" width="24" height="24"></rect>
        <path d="M12,9 C10.3431458,9 9,10.3431458 9,12 C9,13.6568542 10.3431458,15 12,15 C13.6568542,15 15,13.6568542 15,12 C15,10.3431458 13.6568542,9 12,9 Z M12,7 C14.7614237,7 17,9.23857625 17,12 C17,14.7614237 14.7614237,17 12,17 C9.23857625,17 7,14.7614237 7,12 C7,9.23857625 9.23857625,7 12,7 L12,7 Z M18.5,6.75 C18.5,7.44035594 17.9403559,8 17.25,8 C16.5596441,8 16,7.44035594 16,6.75 C16,6.05964406 16.5596441,5.5 17.25,5.5 C17.9403559,5.5 18.5,6.05964406 18.5,6.75 Z M12,4 C9.526,4 9.122,4.007 7.971,4.058 C7.187,4.095 6.661,4.2 6.173,4.39 C5.739,4.558 5.426,4.759 5.093,5.093 C4.78000686,5.3953991 4.53935317,5.76458374 4.389,6.173 C4.199,6.663 4.094,7.188 4.058,7.971 C4.006,9.075 4,9.461 4,12 C4,14.474 4.007,14.878 4.058,16.029 C4.095,16.812 4.2,17.339 4.389,17.826 C4.559,18.261 4.759,18.574 5.091,18.906 C5.428,19.242 5.741,19.443 6.171,19.609 C6.665,19.8 7.191,19.906 7.971,19.942 C9.075,19.994 9.461,20 12,20 C14.474,20 14.878,19.993 16.029,19.942 C16.811,19.905 17.338,19.8 17.826,19.611 C18.259,19.442 18.574,19.241 18.906,18.909 C19.243,18.572 19.444,18.259 19.61,17.829 C19.8,17.336 19.906,16.809 19.942,16.029 C19.994,14.925 20,14.539 20,12 C20,9.526 19.993,9.122 19.942,7.971 C19.905,7.189 19.8,6.661 19.61,6.173 C19.4592926,5.76500184 19.219074,5.39596045 18.907,5.093 C18.6047337,4.77984609 18.2355098,4.53916681 17.827,4.389 C17.337,4.199 16.811,4.094 16.029,4.058 C14.925,4.006 14.539,4 12,4 Z M12,2 C14.717,2 15.056,2.01 16.122,2.06 C17.187,2.11 17.912,2.277 18.55,2.525 C19.21,2.779 19.766,3.123 20.322,3.678 C20.8304937,4.17789596 21.2239536,4.78258896 21.475,5.45 C21.722,6.087 21.89,6.813 21.94,7.878 C21.987,8.944 22,9.283 22,12 C22,14.717 21.99,15.056 21.94,16.122 C21.89,17.187 21.722,17.912 21.475,18.55 C21.2246766,19.2177765 20.8311207,19.822617 20.322,20.322 C19.8219615,20.8303192 19.2173093,21.2237526 18.55,21.475 C17.913,21.722 17.187,21.89 16.122,21.94 C15.056,21.987 14.717,22 12,22 C9.283,22 8.944,21.99 7.878,21.94 C6.813,21.89 6.088,21.722 5.45,21.475 C4.78232618,21.2244734 4.17752722,20.8309445 3.678,20.322 C3.16940644,19.8221857 2.77593123,19.2174693 2.525,18.55 C2.277,17.913 2.11,17.187 2.06,16.122 C2.013,15.056 2,14.717 2,12 C2,9.283 2.01,8.944 2.06,7.878 C2.11,6.812 2.277,6.088 2.525,5.45 C2.7752361,4.7821794 3.16880364,4.17732106 3.678,3.678 C4.17767098,3.16923123 4.78242858,2.77572924 5.45,2.525 C6.088,2.277 6.812,2.11 7.878,2.06 C8.944,2.013 9.283,2 12,2 Z" id="shape" fill="#001018" fill-rule="nonzero"></path>
    </g>
</svg>