<?xml version="1.0" encoding="UTF-8"?>
<svg width="24px" height="24px" viewBox="0 0 24 24" version="1.1" xmlns="http://www.w3.org/2000/svg" xmlns:xlink="http://www.w3.org/1999/xlink">
    <title>icons/vitamix/logos/messenger-line</title>
    <g id="icons/vitamix/logos/messenger-line" stroke="none" stroke-width="1" fill="none" fill-rule="evenodd">
        <rect id="path" fill-rule="nonzero" x="0" y="0" width="24" height="24"></rect>
        <path d="M7.764,19.225 C8.354,18.965 9.014,18.916 9.632,19.086 C10.402,19.296 11.197,19.402 12,19.4000278 C16.585,19.4000278 20,16.113 20,11.7 C20,7.287 16.585,4 12,4 C7.415,4 4,7.287 4,11.7 C4,13.97 4.896,15.972 6.466,17.376 C7.04251959,17.8866584 7.38324524,18.6122377 7.408,19.382 L7.764,19.225 L7.764,19.225 Z M12,2 C17.634,2 22,6.127 22,11.7 C22,17.273 17.634,21.4 12,21.4 C11.0221393,21.4025102 10.0483922,21.2733499 9.105,21.016 C8.92780404,20.9672803 8.73923709,20.9810521 8.571,21.055 L6.587,21.931 C6.34358497,22.0385758 6.06261101,22.0180649 5.83739914,21.8762797 C5.61218728,21.7344945 5.47222554,21.4899996 5.464,21.224 L5.409,19.444 C5.40171784,19.2252623 5.3048061,19.019144 5.141,18.874 C3.195,17.135 2,14.617 2,11.7 C2,6.127 6.367,2 12,2 Z M5.995,14.537 L8.932,9.877 C9.15540981,9.52229544 9.51705479,9.27726144 9.92930785,9.20127009 C10.3415609,9.12527875 10.766804,9.22526426 11.102,9.477 L13.438,11.227 C13.6519421,11.3885049 13.9470579,11.3885049 14.161,11.227 L17.316,8.831 C17.737,8.512 18.287,9.016 18.005,9.464 L15.068,14.124 C14.8445902,14.4787046 14.4829452,14.7237386 14.0706921,14.7997299 C13.6584391,14.8757213 13.233196,14.7757357 12.898,14.524 L10.562,12.774 C10.3480579,12.6124951 10.0529421,12.6124951 9.839,12.774 L6.684,15.169 C6.263,15.488 5.713,14.984 5.995,14.536 L5.995,14.537 Z" id="shape" fill="#001018" fill-rule="nonzero"></path>
    </g>
</svg>