<?xml version="1.0" encoding="UTF-8"?>
<svg width="24px" height="24px" viewBox="0 0 24 24" version="1.1" xmlns="http://www.w3.org/2000/svg" xmlns:xlink="http://www.w3.org/1999/xlink">
    <title>icons/vitamix/logos/messenger-fill</title>
    <g id="icons/vitamix/logos/messenger-fill" stroke="none" stroke-width="1" fill="none" fill-rule="evenodd">
        <rect id="path" fill-rule="nonzero" x="0" y="0" width="24" height="24"></rect>
        <path d="M12,2 C17.634,2 22,6.127 22,11.7 C22,17.273 17.634,21.4 12,21.4 C11.0221393,21.4025102 10.0483922,21.2733499 9.105,21.016 C8.92780404,20.9672803 8.73923709,20.9810521 8.571,21.055 L6.587,21.931 C6.34358497,22.0385758 6.06261101,22.0180649 5.83739914,21.8762797 C5.61218728,21.7344945 5.47222554,21.4899996 5.464,21.224 L5.409,19.444 C5.40171784,19.2252623 5.3048061,19.019144 5.141,18.874 C3.195,17.135 2,14.617 2,11.7 C2,6.127 6.367,2 12,2 Z M5.995,14.537 C5.713,14.984 6.263,15.488 6.684,15.168 L9.839,12.774 C10.0529421,12.6124951 10.3480579,12.6124951 10.562,12.774 L12.899,14.524 C13.2341365,14.7753945 13.659136,14.8751774 14.0711345,14.799198 C14.483133,14.7232185 14.8445824,14.4784012 15.068,14.124 L18.005,9.464 C18.287,9.016 17.737,8.512 17.316,8.831 L14.161,11.227 C13.9470579,11.3885049 13.6519421,11.3885049 13.438,11.227 L11.101,9.477 C10.7658635,9.22560549 10.340864,9.12582257 9.92886552,9.20180201 C9.516867,9.27778146 9.15541757,9.52259875 8.932,9.877 L5.995,14.537 L5.995,14.537 Z" id="shape" fill="#001018" fill-rule="nonzero"></path>
    </g>
</svg>