<?xml version="1.0" encoding="UTF-8"?>
<svg width="24px" height="24px" viewBox="0 0 24 24" version="1.1" xmlns="http://www.w3.org/2000/svg" xmlns:xlink="http://www.w3.org/1999/xlink">
    <title>icons/vitamix/logos/pinterest-fill</title>
    <g id="icons/vitamix/logos/pinterest-fill" stroke="none" stroke-width="1" fill="none" fill-rule="evenodd">
        <rect id="path" fill-rule="nonzero" x="0" y="0" width="24" height="24"></rect>
        <path d="M13.37,2.094 C8.4222834,1.41338947 3.7306589,4.48647853 2.37780018,9.29406665 C1.02494146,14.1016548 3.42542854,19.1704691 8.002,21.17 C7.94214815,20.4018132 7.99708459,19.6289957 8.165,18.877 C8.35,18.038 9.461,13.414 9.461,13.414 C9.23976782,12.918097 9.12920519,12.3799573 9.137,11.837 C9.137,10.352 9.994,9.244 11.06,9.244 C11.4475058,9.23835962 11.8183096,9.40151548 12.0759485,9.69102325 C12.3335874,9.98053103 12.4525906,10.3677694 12.402,10.752 C12.402,11.652 11.824,13.014 11.522,14.292 C11.4009628,14.7673218 11.512969,15.2718771 11.8237595,15.6513374 C12.1345499,16.0307977 12.607148,16.2400165 13.097,16.215 C14.995,16.215 16.267,13.784 16.267,10.914 C16.267,8.714 14.81,7.066 12.124,7.066 C10.8253381,7.01553679 9.56279807,7.49984479 8.63105058,8.4058889 C7.69930309,9.31193301 7.17987563,10.5604348 7.194,11.86 C7.16536852,12.5733235 7.3955035,13.2729622 7.842,13.83 C8.0134007,13.9579472 8.07946334,14.1838651 8.004,14.384 C7.958,14.568 7.842,15.007 7.796,15.168 C7.77659488,15.2787249 7.70575423,15.3736519 7.6051307,15.4237664 C7.50450716,15.4738808 7.38606263,15.4732252 7.286,15.422 C5.902,14.868 5.25,13.345 5.25,11.606 C5.25,8.759 7.634,5.351 12.404,5.351 C16.2,5.351 18.724,8.128 18.724,11.098 C18.724,15.007 16.547,17.946 13.33,17.946 C12.3528384,17.977238 11.4273785,17.5073427 10.876,16.7 C10.876,16.7 10.298,19.016 10.184,19.454 C9.95129211,20.2107023 9.6079075,20.9288108 9.165,21.585 C10.088,21.865 11.047,22.005 12.011,22.0010833 C14.6639692,22.0031279 17.208789,20.9497029 19.0840654,19.0731133 C20.9593418,17.1965237 22.0109851,14.650967 22.0070113,11.998 C22.0044317,7.00423352 18.318907,2.77751081 13.372,2.095 L13.37,2.094 Z" id="shape" fill="#001018" fill-rule="nonzero"></path>
    </g>
</svg>