<?xml version="1.0" encoding="UTF-8"?>
<svg width="24px" height="24px" viewBox="0 0 24 24" version="1.1" xmlns="http://www.w3.org/2000/svg" xmlns:xlink="http://www.w3.org/1999/xlink">
    <title>icons/vitamix/logos/pinterest-line</title>
    <g id="icons/vitamix/logos/pinterest-line" stroke="none" stroke-width="1" fill="none" fill-rule="evenodd">
        <rect id="path" fill-rule="nonzero" x="0" y="0" width="24" height="24"></rect>
        <path d="M8.49,19.191 C8.514,18.855 8.562,18.52 8.634,18.19 C8.697,17.895 8.888,17.06 9.168,15.85 L9.175,15.82 L9.562,14.152 C9.641,13.812 9.702,13.548 9.743,13.46 C9.54881586,13.0110726 9.45202088,12.5260752 9.459,12.037 C9.459,10.7 10.215,9.664 11.195,9.664 C11.555,9.658 11.899,9.814 12.137,10.09 C12.375,10.365 12.485,10.734 12.439,11.086 C12.439,11.539 12.354,11.884 11.986,13.121 C11.915,13.359 11.866,13.525 11.82,13.692 C11.769,13.88 11.725,14.05 11.688,14.214 C11.592,14.6 11.68,15.011 11.925,15.32 C12.1662936,15.6264647 12.5414853,15.7965317 12.931,15.776 C14.423,15.776 15.531,13.791 15.531,11.228 C15.531,9.258 14.241,7.954 12.099,7.954 C11.0149114,7.91369966 9.96350484,8.32932986 9.2,9.1 C8.42080373,9.88687445 7.99025213,10.9537057 8.005,12.061 C7.98014091,12.6517557 8.16110631,13.2328243 8.517,13.705 C8.698,13.845 8.767,14.088 8.692,14.295 C8.651,14.463 8.552,14.847 8.516,14.975 C8.4948415,15.1025134 8.41479096,15.2125829 8.3,15.272 C8.18892842,15.3299373 8.05671732,15.3306821 7.945,15.274 C6.785,14.795 6.149,13.496 6.149,11.834 C6.149,8.849 8.64,6.25 12.341,6.25 C15.476,6.25 17.822,8.579 17.822,11.39 C17.822,14.922 15.89,17.494 13.132,17.494 C12.3364707,17.5170688 11.5772098,17.1611885 11.086,16.535 L11.043,16.712 L10.836,17.564 L10.834,17.571 C10.688,18.171 10.586,18.588 10.546,18.745 C10.44,19.1 10.306,19.448 10.146,19.785 C14.2777042,20.7685804 18.4578589,18.352084 19.6674037,14.2807929 C20.8769485,10.2095018 18.69424,5.9026548 14.69571,4.47081405 C10.69718,3.0389733 6.27670314,4.98127385 4.62690914,8.89491535 C2.97711514,12.8085569 4.67311688,17.3292565 8.49,19.192 L8.49,19.191 Z M12,22 C6.477,22 2,17.523 2,12 C2,6.477 6.477,2 12,2 C17.523,2 22,6.477 22,12 C22,17.523 17.523,22 12,22 Z" id="shape" fill="#001018" fill-rule="nonzero"></path>
    </g>
</svg>