<?xml version="1.0" encoding="UTF-8"?>
<svg width="24px" height="24px" viewBox="0 0 24 24" version="1.1" xmlns="http://www.w3.org/2000/svg" xmlns:xlink="http://www.w3.org/1999/xlink">
    <title>icons/vitamix/logos/safari-line</title>
    <g id="icons/vitamix/logos/safari-line" stroke="none" stroke-width="1" fill="none" fill-rule="evenodd">
        <rect id="path" fill-rule="nonzero" x="0" y="0" width="24" height="24"></rect>
        <path d="M17.812,6.503 L13.414,13.414 L6.503,17.812 C7.73692475,18.9820989 9.3126369,19.727032 11,19.938 L11,18 L13,18 L13,19.938 C14.4240451,19.760619 15.7736522,19.2015651 16.906,18.32 L15.536,16.95 L16.95,15.536 L18.32,16.906 C19.2015651,15.7736522 19.760619,14.4240451 19.938,13 L18,13 L18,11 L19.938,11 C19.727032,9.3126369 18.9820989,7.73692475 17.812,6.503 L17.812,6.503 Z M17.497,6.188 C16.2630752,5.0179011 14.6873631,4.27296803 13,4.062 L13,6 L11,6 L11,4.062 C9.57595486,4.23938104 8.22634779,4.79843486 7.094,5.68 L8.464,7.05 L7.05,8.464 L5.68,7.094 C4.79843486,8.22634779 4.23938104,9.57595486 4.062,11 L6,11 L6,13 L4.062,13 C4.27296803,14.6873631 5.0179011,16.2630752 6.188,17.497 L10.586,10.586 L17.497,6.188 Z M12,22 C6.477,22 2,17.523 2,12 C2,6.477 6.477,2 12,2 C17.523,2 22,6.477 22,12 C22,17.523 17.523,22 12,22 Z" id="shape" fill="#001018" fill-rule="nonzero"></path>
    </g>
</svg>