<?xml version="1.0" encoding="UTF-8"?>
<svg width="24px" height="24px" viewBox="0 0 24 24" version="1.1" xmlns="http://www.w3.org/2000/svg" xmlns:xlink="http://www.w3.org/1999/xlink">
    <title>icons/vitamix/logos/safari-fill</title>
    <g id="icons/vitamix/logos/safari-fill" stroke="none" stroke-width="1" fill="none" fill-rule="evenodd">
        <rect id="path" fill-rule="nonzero" x="0" y="0" width="24" height="24"></rect>
        <path d="M16.7,6.8 L10.586,10.586 L6.8,16.7 L6.696,16.596 L5.281,18.01 L5.989,18.718 L7.403,17.303 L7.3,17.2 L13.414,13.415 L17.2,7.3 L17.304,7.404 L18.719,5.99 L18.011,5.282 L16.597,6.697 L16.701,6.801 L16.7,6.8 Z M12,22 C6.477,22 2,17.523 2,12 C2,6.477 6.477,2 12,2 C17.523,2 22,6.477 22,12 C22,17.523 17.523,22 12,22 Z M11.5,3 L11.5,5 L12.5,5 L12.5,3 L11.5,3 Z M11.5,19 L11.5,21 L12.5,21 L12.5,19 L11.5,19 Z M8.094,3.876 L8.859,5.724 L9.783,5.342 L9.018,3.494 L8.094,3.876 L8.094,3.876 Z M14.217,18.658 L14.982,20.506 L15.906,20.124 L15.141,18.276 L14.217,18.658 Z M14.982,3.494 L14.217,5.342 L15.141,5.724 L15.906,3.876 L14.982,3.494 Z M8.86,18.276 L8.095,20.124 L9.019,20.506 L9.784,18.658 L8.86,18.276 Z M21,11.5 L19,11.5 L19,12.5 L21,12.5 L21,11.5 Z M5,11.5 L3,11.5 L3,12.5 L5,12.5 L5,11.5 Z M20.458,15.115 L18.623,14.321 L18.226,15.239 L20.061,16.033 L20.458,15.115 L20.458,15.115 Z M5.774,8.761 L3.94,7.967 L3.543,8.885 L5.378,9.679 L5.775,8.761 L5.774,8.761 Z M20.124,8.094 L18.276,8.859 L18.658,9.783 L20.506,9.018 L20.124,8.094 Z M5.342,14.217 L3.494,14.982 L3.876,15.906 L5.724,15.141 L5.342,14.217 L5.342,14.217 Z M18.718,18.01 L17.303,16.596 L16.596,17.303 L18.01,18.718 L18.718,18.01 Z M7.404,6.697 L5.99,5.282 L5.282,5.99 L6.697,7.404 L7.404,6.697 Z M11.312,11.312 L14.923,9.077 L12.688,12.687 L11.312,11.312 L11.312,11.312 Z" id="shape" fill="#001018" fill-rule="nonzero"></path>
    </g>
</svg>