<?xml version="1.0" encoding="UTF-8"?>
<svg width="24px" height="24px" viewBox="0 0 24 24" version="1.1" xmlns="http://www.w3.org/2000/svg" xmlns:xlink="http://www.w3.org/1999/xlink">
    <title>icons/vitamix/logos/slack-line</title>
    <g id="icons/vitamix/logos/slack-line" stroke="none" stroke-width="1" fill="none" fill-rule="evenodd">
        <rect id="path" fill-rule="nonzero" x="0" y="0" width="24" height="24"></rect>
        <path d="M14.5,3 C15.3284271,3 16,3.67157288 16,4.5 L16,9.5 C16,10.3284271 15.3284271,11 14.5,11 C13.6715729,11 13,10.3284271 13,9.5 L13,4.5 C13,3.67157288 13.6715729,3 14.5,3 Z M4.5,13 L6,13 L6,14.5 C6,15.3284271 5.32842712,16 4.5,16 C3.67157288,16 3,15.3284271 3,14.5 C3,13.6715729 3.67157288,13 4.5,13 Z M13,18 L14.5,18 C15.3284271,18 16,18.6715729 16,19.5 C16,20.3284271 15.3284271,21 14.5,21 C13.6715729,21 13,20.3284271 13,19.5 L13,18 Z M14.5,13 L19.5,13 C20.3284271,13 21,13.6715729 21,14.5 C21,15.3284271 20.3284271,16 19.5,16 L14.5,16 C13.6715729,16 13,15.3284271 13,14.5 C13,13.6715729 13.6715729,13 14.5,13 Z M19.5,8 C20.3284271,8 21,8.67157288 21,9.5 C21,10.3284271 20.3284271,11 19.5,11 L18,11 L18,9.5 C18,8.67157288 18.6715729,8 19.5,8 Z M4.5,8 L9.5,8 C10.3284271,8 11,8.67157288 11,9.5 C11,10.3284271 10.3284271,11 9.5,11 L4.5,11 C3.67157288,11 3,10.3284271 3,9.5 C3,8.67157288 3.67157288,8 4.5,8 Z M9.5,3 C10.3284271,3 11,3.67157288 11,4.5 L11,6 L9.5,6 C8.67157288,6 8,5.32842712 8,4.5 C8,3.67157288 8.67157288,3 9.5,3 Z M9.5,13 C10.3284271,13 11,13.6715729 11,14.5 L11,19.5 C11,20.3284271 10.3284271,21 9.5,21 C8.67157288,21 8,20.3284271 8,19.5 L8,14.5 C8,13.6715729 8.67157288,13 9.5,13 Z" id="shape" fill="#000000" fill-rule="nonzero"></path>
    </g>
</svg>