<?xml version="1.0" encoding="UTF-8"?>
<svg width="24px" height="24px" viewBox="0 0 24 24" version="1.1" xmlns="http://www.w3.org/2000/svg" xmlns:xlink="http://www.w3.org/1999/xlink">
    <title>icons/vitamix/logos/slack-fill</title>
    <g id="icons/vitamix/logos/slack-fill" stroke="none" stroke-width="1" fill="none" fill-rule="evenodd">
        <rect id="path" fill-rule="nonzero" x="0" y="0" width="24" height="24"></rect>
        <path d="M6.527,14.514 C6.52315697,15.598586 5.64458782,16.4767085 4.56,16.48 C3.47502345,16.4767055 2.59629449,15.5979766 2.593,14.513 C2.593,13.43 3.477,12.545 4.56,12.545 L6.528,12.545 L6.528,14.513 L6.527,14.514 Z M7.519,14.514 C7.519,13.431 8.403,12.546 9.486,12.546 C10.569,12.546 11.454,13.431 11.454,14.514 L11.454,19.441 C11.4507028,20.5263655 10.5713671,21.4052544 9.486,21.408 C8.40102345,21.4047055 7.52229449,20.5259766 7.519,19.441 L7.519,14.514 L7.519,14.514 Z M9.486,6.527 C8.40141399,6.52315697 7.5232915,5.64458782 7.52,4.56 C7.52,3.477 8.404,2.593 9.487,2.593 C10.57,2.593 11.455,3.477 11.455,4.56 L11.455,6.528 L9.486,6.528 L9.486,6.527 Z M9.486,7.519 C10.569,7.519 11.454,8.403 11.454,9.486 C11.4512519,10.5717561 10.5717561,11.4512519 9.486,11.454 L4.56,11.454 C3.47463448,11.4507028 2.59574555,10.5713671 2.593,9.486 C2.593,8.403 3.477,7.519 4.56,7.519 L9.487,7.519 L9.486,7.519 Z M17.473,9.486 C17.473,8.403 18.358,7.519 19.441,7.519 C20.524,7.519 21.408,8.403 21.408,9.486 C21.4052544,10.5713671 20.5263655,11.4507028 19.441,11.454 L17.473,11.454 L17.473,9.486 L17.473,9.486 Z M16.481,9.486 C16.4782544,10.5713671 15.5993655,11.4507028 14.514,11.454 C13.4282439,11.4512519 12.5487481,10.5717561 12.546,9.486 L12.546,4.56 C12.546,3.477 13.431,2.593 14.514,2.593 C15.597,2.593 16.481,3.477 16.481,4.56 L16.481,9.487 L16.481,9.486 Z M14.514,17.473 C15.597,17.473 16.481,18.358 16.481,19.441 C16.4777055,20.5259766 15.5989766,21.4047055 14.514,21.408 C13.4286329,21.4052544 12.5492972,20.5263655 12.546,19.441 L12.546,17.473 L14.514,17.473 L14.514,17.473 Z M14.514,16.481 C13.4286329,16.4782544 12.5492972,15.5993655 12.546,14.514 C12.546,13.431 13.431,12.546 14.514,12.546 L19.441,12.546 C20.524,12.546 21.408,13.431 21.408,14.514 C21.4047055,15.5989766 20.5259766,16.4777055 19.441,16.481 L14.514,16.481 Z" id="shape" fill="#000000" fill-rule="nonzero"></path>
    </g>
</svg>