<?xml version="1.0" encoding="UTF-8"?>
<svg width="24px" height="24px" viewBox="0 0 24 24" version="1.1" xmlns="http://www.w3.org/2000/svg" xmlns:xlink="http://www.w3.org/1999/xlink">
    <title>icons/vitamix/logos/snapchat-line</title>
    <g id="icons/vitamix/logos/snapchat-line" stroke="none" stroke-width="1" fill="none" fill-rule="evenodd">
        <rect id="path" fill-rule="nonzero" x="0" y="0" width="24" height="24"></rect>
        <path d="M15.396,10.58 L15.416,10.331 C15.471522,9.55691131 15.4992065,8.78107728 15.499,8.005 C15.499,7.135 15.205,6.519 14.585,5.942 C13.925,5.328 13.126,5 11.995,5 C10.858,5 10.037,5.335 9.485,5.888 C8.789,6.583 8.527,7.106 8.527,7.988 C8.527,8.509 8.588,9.982 8.623,10.606 C8.65146611,11.1160813 8.48365723,11.6177189 8.154,12.008 C8.209,12.106 8.259,12.212 8.307,12.325 C8.607,13.096 8.505,13.868 8.155,14.596 C7.763,15.414 7.424,15.989 6.745,16.75 C6.54339703,16.9763631 6.32904905,17.191045 6.103,17.393 C6.27246262,17.5556639 6.4119293,17.7469229 6.515,17.958 C7.04425163,17.9110141 7.5774284,17.9359069 8.1,18.032 C8.91,18.178 9.424,18.466 10.294,19.093 L10.31,19.104 L10.523,19.256 C11.142,19.696 11.4,19.802 11.996,19.802 C12.605,19.802 12.906,19.681 13.519,19.25 L13.726,19.104 C14.602,18.472 15.133,18.176 15.957,18.028 C16.4719742,17.9423536 16.9952287,17.9175167 17.516,17.954 C17.6203715,17.7418246 17.7615595,17.5498495 17.933,17.387 C17.7171614,17.1924478 17.5115522,16.9868386 17.317,16.771 C16.7352237,16.1228365 16.2480639,15.3956319 15.87,14.611 C15.507,13.862 15.4,13.071 15.733,12.29 C15.773,12.192 15.818,12.1 15.865,12.014 C15.5272027,11.6153043 15.358863,11.1002352 15.396,10.579 L15.396,10.58 Z M5.081,10.478 C5.5,10.478 5.681,10.783 6.3,10.783 C6.457,10.783 6.56,10.748 6.626,10.717 C6.617,10.561 6.527,8.731 6.527,7.988 C6.527,6.3 7.247,5.298 8.07,4.474 C8.893,3.65 10.175,3 11.996,3 C13.816,3 15.062,3.653 15.948,4.478 C16.834,5.303 17.499,6.408 17.499,8.006 C17.499,9.561 17.4,10.6 17.391,10.722 C17.4772478,10.7662584 17.5730723,10.7885831 17.67,10.787 C18.3,10.787 18.3,10.477 19,10.477 C19.685,10.477 19.983,11.047 19.983,11.3 C19.983,11.921 19.15,12.267 18.653,12.426 C18.284,12.543 17.722,12.717 17.578,13.061 C17.504,13.235 17.535,13.461 17.67,13.739 C17.673,13.747 18.93,16.622 21.6,17.065 C21.835,17.1 21.991,17.306 21.991,17.548 C21.991,17.88 21.621,18.165 21.265,18.33 C20.822,18.53 20.174,18.7 19.313,18.835 C19.27,18.913 19.179,19.32 19.078,19.722 C18.943,20.264 18.277,20.088 18.087,20.048 C17.49615,19.923624 16.8876499,19.9073612 16.291,20 C15.809,20.087 15.378,20.378 14.896,20.726 C14.183,21.23 13.431,21.802 11.996,21.802 C10.56,21.802 9.852,21.23 9.139,20.726 C8.657,20.378 8.234,20.089 7.743,20 C6.845,19.837 6.173,20.036 5.948,20.057 C5.722,20.077 5.106,20.301 4.952,19.73 C4.907,19.564 4.761,18.922 4.717,18.835 C3.861,18.7 3.209,18.522 2.765,18.322 C2.4,18.157 2.039,17.879 2.039,17.543 C2.039,17.308 2.197,17.103 2.43,17.061 C5.074,16.578 6.196,14.056 6.352,13.731 C6.484,13.455 6.513,13.231 6.443,13.052 C6.3,12.709 5.739,12.539 5.37,12.417 C5.265,12.383 4.034,12.044 4.034,11.3 C4.034,11.06 4.239,10.727 4.616,10.57 C4.76441947,10.5123497 4.92180958,10.4812102 5.081,10.478 Z" id="shape" fill="#001018" fill-rule="nonzero"></path>
    </g>
</svg>