<?xml version="1.0" encoding="UTF-8"?>
<svg width="24px" height="24px" viewBox="0 0 24 24" version="1.1" xmlns="http://www.w3.org/2000/svg" xmlns:xlink="http://www.w3.org/1999/xlink">
    <title>icons/vitamix/logos/snapchat-fill</title>
    <g id="icons/vitamix/logos/snapchat-fill" stroke="none" stroke-width="1" fill="none" fill-rule="evenodd">
        <rect id="path" fill-rule="nonzero" x="0" y="0" width="24" height="24"></rect>
        <path d="M11.871,21.764 C10.681,21.764 9.887,21.203 9.178,20.708 C8.675,20.351 8.202,20.012 7.645,19.918 C7.37979979,19.8723912 7.11108816,19.8503053 6.842,19.852 C6.37,19.852 5.995,19.923 5.728,19.977 C5.558,20.007 5.416,20.035 5.304,20.035 C5.188,20.035 5.041,20.003 4.984,19.807 C4.934,19.647 4.903,19.495 4.872,19.348 C4.792,18.978 4.725,18.751 4.586,18.728 C3.097,18.501 2.206,18.158 2.032,17.752 C2.018,17.708 2.001,17.662 2.001,17.627 C1.991,17.502 2.081,17.4 2.206,17.377 C3.387,17.181 4.448,16.553 5.344,15.519 C6.04,14.716 6.379,13.94 6.41,13.856 C6.41,13.846 6.419,13.846 6.419,13.846 C6.589,13.495 6.624,13.196 6.521,12.951 C6.33,12.491 5.696,12.295 5.264,12.161 C5.153,12.131 5.059,12.095 4.979,12.068 C4.609,11.921 3.993,11.608 4.074,11.176 C4.132,10.864 4.546,10.641 4.885,10.641 C4.979,10.641 5.059,10.655 5.125,10.691 C5.505,10.864 5.848,10.953 6.142,10.953 C6.508,10.953 6.682,10.815 6.726,10.771 C6.71668883,10.5732013 6.70502134,10.3755207 6.691,10.178 C6.601,8.813 6.499,7.119 6.931,6.148 C8.229,3.241 10.984,3.008 11.8,3.008 L12.156,3 L12.206,3 C13.021,3 15.776,3.227 17.074,6.139 C17.511,7.11 17.404,8.809 17.314,10.169 L17.306,10.236 C17.296,10.418 17.283,10.592 17.274,10.771 C17.319,10.806 17.479,10.94 17.809,10.944 C18.095,10.936 18.407,10.842 18.763,10.681 C18.8615499,10.6383881 18.9676364,10.6159468 19.075,10.615 C19.2,10.615 19.325,10.645 19.432,10.681 L19.441,10.681 C19.74,10.793 19.936,11.002 19.936,11.221 C19.945,11.426 19.784,11.738 19.022,12.046 C18.942,12.076 18.848,12.113 18.737,12.139 C18.313,12.269 17.68,12.474 17.479,12.929 C17.368,13.169 17.413,13.477 17.582,13.824 C17.582,13.834 17.591,13.834 17.591,13.834 C17.64,13.958 18.928,16.883 21.795,17.36 C21.9161878,17.3804269 22.0037078,17.4871586 22.0001135,17.61 C22.0001135,17.654 21.991,17.699 21.969,17.739 C21.795,18.149 20.912,18.483 19.414,18.715 C19.276,18.737 19.209,18.965 19.129,19.335 C19.0969706,19.4892457 19.0596149,19.6423372 19.017,19.794 C18.973,19.941 18.879,20.021 18.719,20.021 L18.696,20.021 C18.594,20.021 18.456,20.008 18.273,19.972 C17.9064968,19.8939135 17.5327281,19.8550282 17.158,19.856 C16.895,19.856 16.623,19.879 16.356,19.923 C15.803,20.013 15.326,20.356 14.822,20.713 C14.105,21.203 13.307,21.764 12.125,21.764 L11.871,21.764 L11.871,21.764 Z" id="shape" fill="#001018" fill-rule="nonzero"></path>
    </g>
</svg>