<?xml version="1.0" encoding="UTF-8"?>
<svg width="24px" height="24px" viewBox="0 0 24 24" version="1.1" xmlns="http://www.w3.org/2000/svg" xmlns:xlink="http://www.w3.org/1999/xlink">
    <title>icons/vitamix/logos/twitter-line</title>
    <g id="icons/vitamix/logos/twitter-line" stroke="none" stroke-width="1" fill="none" fill-rule="evenodd">
        <rect id="path" fill-rule="nonzero" x="0" y="0" width="24" height="24"></rect>
        <path d="M15.3,5.54999996 C13.7188458,5.54973592 12.4288969,6.81610983 12.4,8.397 L12.372,9.972 C12.3686847,10.1430398 12.2925167,10.3045312 12.1626427,10.4158791 C12.0327686,10.527227 11.8615402,10.5778417 11.692,10.555 L10.131,10.343 C8.077,10.063 6.109,9.117 4.221,7.544 C3.623,10.854 4.791,13.147 7.604,14.916 L9.351,16.014 C9.51954448,16.1199192 9.62458356,16.3025349 9.63139543,16.5014814 C9.63820729,16.700428 9.54590497,16.8898005 9.385,17.007 L7.793,18.17 C8.74,18.229 9.639,18.187 10.385,18.039 C15.103,17.097 18.24,13.547 18.24,7.691 C18.24,7.213 17.228,5.54999996 15.3,5.54999996 L15.3,5.54999996 Z M10.4,8.36 C10.4356879,6.38918405 11.6488334,4.63161761 13.4789148,3.8993668 C15.3089962,3.16711599 17.3996853,3.60275455 18.785,5.005 C19.496,5 20.101,5.18 21.454,4.36 C21.119,6 20.954,6.712 20.24,7.691 C20.24,15.333 15.543,19.049 10.777,20 C7.509,20.652 2.757,19.581 1.395,18.159 C2.089,18.105 4.909,17.802 6.539,16.609 C5.16,15.7 -0.329,12.47 3.278,3.786 C4.971,5.763 6.688,7.109 8.428,7.823 C9.586,8.298 9.87,8.288 10.401,8.361 L10.4,8.36 Z" id="shape" fill="#001018" fill-rule="nonzero"></path>
    </g>
</svg>