<?xml version="1.0" encoding="UTF-8"?>
<svg width="24px" height="24px" viewBox="0 0 24 24" version="1.1" xmlns="http://www.w3.org/2000/svg" xmlns:xlink="http://www.w3.org/1999/xlink">
    <title>icons/vitamix/logos/whatsapp-fill</title>
    <g id="icons/vitamix/logos/whatsapp-fill" stroke="none" stroke-width="1" fill="none" fill-rule="evenodd">
        <rect id="path" fill-rule="nonzero" x="0" y="0" width="24" height="24"></rect>
        <path d="M2.004,22.000013 L3.356,17.032 C2.4651379,15.5048558 1.99709593,13.7679921 1.99998657,12 C1.99998657,6.477 6.477,2 12,2 C17.523,2 22,6.477 22,12 C22,17.523 17.523,22.000013 12,22.000013 C10.232778,22.0028523 8.49665649,21.5351694 6.97,20.645 L2.004,22.000013 Z M8.391,7.308 C8.26186245,7.31601827 8.13567384,7.35003137 8.02,7.408 C7.91152112,7.4694296 7.81249626,7.54622439 7.726,7.636 C7.606,7.749 7.538,7.847 7.465,7.942 C7.09541111,8.4229958 6.89660975,9.01341825 6.89995735,9.62 C6.902,10.11 7.03,10.587 7.23,11.033 C7.639,11.935 8.312,12.89 9.201,13.775 C9.415,13.988 9.624,14.202 9.849,14.401 C10.9523895,15.3724632 12.2672537,16.0730393 13.689,16.447 L14.258,16.534 C14.443,16.544 14.628,16.53 14.814,16.521 C15.1052385,16.5059665 15.3896136,16.4271062 15.647,16.29 C15.813,16.202 15.891,16.158 16.03,16.07 C16.03,16.07 16.073,16.042 16.155,15.98 C16.29,15.88 16.373,15.809 16.485,15.692 C16.568,15.606 16.64,15.505 16.695,15.39 C16.773,15.227 16.851,14.916 16.883,14.657 C16.907,14.459 16.9,14.351 16.897,14.284 C16.893,14.177 16.804,14.066 16.707,14.019 L16.125,13.758 C16.125,13.758 15.255,13.379 14.724,13.137 C14.6680133,13.1125953 14.608015,13.0986974 14.547,13.096 C14.4085748,13.0817844 14.2707603,13.1280872 14.169,13.223 L14.169,13.221 C14.164,13.221 14.097,13.278 13.374,14.154 C13.2891213,14.2680523 13.1436848,14.3194294 13.006,14.284 C12.9408427,14.2665769 12.8770136,14.2445208 12.815,14.218 C12.691,14.166 12.648,14.146 12.563,14.109 L12.558,14.107 C11.985909,13.857225 11.4562241,13.519846 10.988,13.107 C10.862,12.997 10.745,12.877 10.625,12.761 C10.231578,12.3842382 9.88871471,11.9580121 9.605,11.493 L9.546,11.398 C9.50362302,11.3341652 9.46935944,11.2653021 9.444,11.193 C9.406,11.046 9.505,10.928 9.505,10.928 C9.505,10.928 9.748,10.662 9.861,10.518 C9.95508927,10.3983217 10.0428751,10.2738194 10.124,10.145 C10.242,9.955 10.279,9.76 10.217,9.609 C9.937,8.925 9.647,8.244 9.349,7.568 C9.29,7.434 9.115,7.338 8.956,7.319 C8.902,7.313 8.848,7.307 8.794,7.303 C8.65970645,7.29632815 8.52513466,7.29766385 8.391,7.307 L8.391,7.308 Z" id="shape" fill="#001018" fill-rule="nonzero"></path>
    </g>
</svg>