<?xml version="1.0" encoding="UTF-8"?>
<svg width="24px" height="24px" viewBox="0 0 24 24" version="1.1" xmlns="http://www.w3.org/2000/svg" xmlns:xlink="http://www.w3.org/1999/xlink">
    <title>icons/vitamix/logos/whatsapp-line</title>
    <g id="icons/vitamix/logos/whatsapp-line" stroke="none" stroke-width="1" fill="none" fill-rule="evenodd">
        <rect id="path" fill-rule="nonzero" x="0" y="0" width="24" height="24"></rect>
        <path d="M7.253,18.494 L7.977,18.917 C9.19793941,19.6290719 10.5865889,20.0028992 12,20.0000167 C16.418278,20.0000167 20,16.418278 20,12 C20,7.581722 16.418278,4 12,4 C7.581722,4 4,7.581722 4,12 C4,13.436 4.377,14.813 5.084,16.024 L5.506,16.748 L4.853,19.149 L7.253,18.494 L7.253,18.494 Z M2.004,22.000013 L3.356,17.032 C2.4651379,15.5048558 1.99709593,13.7679921 1.99998657,12 C1.99998657,6.477 6.477,2 12,2 C17.523,2 22,6.477 22,12 C22,17.523 17.523,22.000013 12,22.000013 C10.232778,22.0028523 8.49665649,21.5351694 6.97,20.645 L2.004,22.000013 Z M8.391,7.308 C8.525,7.298 8.66,7.298 8.794,7.304 C8.848,7.308 8.902,7.314 8.956,7.32 C9.115,7.338 9.29,7.435 9.349,7.569 C9.647,8.245 9.937,8.926 10.217,9.609 C10.279,9.761 10.242,9.956 10.124,10.146 C10.0428459,10.2744784 9.95506052,10.3986463 9.861,10.518 C9.748,10.663 9.505,10.929 9.505,10.929 C9.505,10.929 9.406,11.047 9.444,11.194 C9.458,11.25 9.504,11.331 9.546,11.399 L9.605,11.494 C9.861,11.921 10.205,12.354 10.625,12.762 C10.745,12.878 10.862,12.997 10.988,13.108 C11.456,13.521 11.986,13.858 12.558,14.108 L12.563,14.11 C12.648,14.147 12.691,14.167 12.815,14.22 C12.877,14.246 12.941,14.269 13.006,14.286 C13.1433715,14.3209862 13.288281,14.2696559 13.373,14.156 C14.097,13.279 14.163,13.222 14.169,13.222 L14.169,13.224 C14.2707603,13.1290872 14.4085748,13.0827844 14.547,13.097 C14.607,13.101 14.668,13.112 14.724,13.137 C15.255,13.38 16.124,13.759 16.124,13.759 L16.706,14.02 C16.804,14.067 16.893,14.178 16.896,14.285 C16.9,14.352 16.906,14.46 16.883,14.658 C16.851,14.917 16.773,15.228 16.695,15.391 C16.6415822,15.5022385 16.5706833,15.6041978 16.485,15.693 C16.3840941,15.7989475 16.2736256,15.8953564 16.155,15.981 C16.1139606,16.0118618 16.072285,16.0418683 16.03,16.071 C15.9056202,16.1499125 15.7778301,16.2233168 15.647,16.291 C15.3895329,16.4277582 15.105162,16.5062759 14.814,16.521 C14.629,16.531 14.444,16.545 14.258,16.535 C14.25,16.535 13.69,16.448 13.69,16.448 C12.2682537,16.0740393 10.9533895,15.3734632 9.85,14.402 C9.624,14.203 9.415,13.989 9.201,13.776 C8.311,12.891 7.639,11.936 7.231,11.034 C7.02216915,10.5912886 6.90936584,10.1094037 6.89993706,9.62 C6.89587773,9.01285155 7.09434692,8.42166673 7.464,7.94 C7.537,7.846 7.606,7.748 7.725,7.635 C7.852,7.515 7.932,7.451 8.019,7.407 C8.13467384,7.34903137 8.26086245,7.31501827 8.39,7.307 L8.391,7.308 Z" id="shape" fill="#001018" fill-rule="nonzero"></path>
    </g>
</svg>