<?xml version="1.0" encoding="UTF-8"?>
<svg width="24px" height="24px" viewBox="0 0 24 24" version="1.1" xmlns="http://www.w3.org/2000/svg" xmlns:xlink="http://www.w3.org/1999/xlink">
    <title>icons/vitamix/logos/youtube-line</title>
    <g id="icons/vitamix/logos/youtube-line" stroke="none" stroke-width="1" fill="none" fill-rule="evenodd">
        <rect id="path" fill-rule="nonzero" x="0" y="0" width="24" height="24"></rect>
        <path d="M19.606,6.995 C19.53,6.697 19.314,6.472 19.067,6.403 C18.63,6.28 16.5,6 12,6 C7.5,6 5.372,6.28 4.931,6.403 C4.687,6.471 4.471,6.696 4.394,6.995 C4.285,7.419 4,9.196 4,12 C4,14.804 4.285,16.58 4.394,17.006 C4.47,17.303 4.686,17.528 4.932,17.596 C5.372,17.72 7.5,18 12,18 C16.5,18 18.629,17.72 19.069,17.597 C19.313,17.529 19.529,17.304 19.606,17.005 C19.715,16.581 20,14.8 20,12 C20,9.2 19.715,7.42 19.606,6.995 Z M21.543,6.498 C22,8.28 22,12 22,12 C22,12 22,15.72 21.543,17.502 C21.289,18.487 20.546,19.262 19.605,19.524 C17.896,20 12,20 12,20 C12,20 6.107,20 4.395,19.524 C3.45,19.258 2.708,18.484 2.457,17.502 C2,15.72 2,12 2,12 C2,12 2,8.28 2.457,6.498 C2.711,5.513 3.454,4.738 4.395,4.476 C6.107,4 12,4 12,4 C12,4 17.896,4 19.605,4.476 C20.55,4.742 21.292,5.516 21.543,6.498 L21.543,6.498 Z M10,15.5 L10,8.5 L16,12 L10,15.5 Z" id="shape" fill="#001018" fill-rule="nonzero"></path>
    </g>
</svg>