<?xml version="1.0" encoding="UTF-8"?>
<svg width="24px" height="24px" viewBox="0 0 24 24" version="1.1" xmlns="http://www.w3.org/2000/svg" xmlns:xlink="http://www.w3.org/1999/xlink">
    <title>icons/vitamix/map/map-pin-line</title>
    <g id="icons/vitamix/map/map-pin-line" stroke="none" stroke-width="1" fill="none" fill-rule="evenodd">
        <rect id="path" fill-rule="nonzero" x="0" y="0" width="24" height="24"></rect>
        <path d="M12,19.8999221 L16.95,14.9499221 C19.6834648,12.2161783 19.6833141,7.78415329 16.9496633,5.05059549 C14.2160125,2.31703769 9.7839875,2.31703769 7.05033671,5.05059549 C4.31668593,7.78415329 4.31653518,12.2161783 7.05,14.9499221 L12,19.8999221 Z M12,22.7279221 L5.636,16.3639221 C2.12131304,12.8491921 2.12133631,7.15072729 5.63605196,3.63602598 C9.15076761,0.121324673 14.8492324,0.121324673 18.363948,3.63602598 C21.8786637,7.15072729 21.878687,12.8491921 18.364,16.3639221 L12,22.7279221 L12,22.7279221 Z M12,11.9999221 C13.1045695,11.9999221 14,11.1044916 14,9.99992206 C14,8.89535256 13.1045695,7.99992206 12,7.99992206 C10.8954305,7.99992206 10,8.89535256 10,9.99992206 C10,11.1044916 10.8954305,11.9999221 12,11.9999221 Z M12,13.9999221 C9.790861,13.9999221 8,12.2090611 8,9.99992206 C8,7.79078306 9.790861,5.99992206 12,5.99992206 C14.209139,5.99992206 16,7.79078306 16,9.99992206 C16,12.2090611 14.209139,13.9999221 12,13.9999221 Z" id="shape" fill="#001018" fill-rule="nonzero"></path>
    </g>
</svg>