<?xml version="1.0" encoding="UTF-8"?>
<svg width="24px" height="24px" viewBox="0 0 24 24" version="1.1" xmlns="http://www.w3.org/2000/svg" xmlns:xlink="http://www.w3.org/1999/xlink">
    <title>icons/vitamix/design/focus-3-fill</title>
    <g id="icons/vitamix/design/focus-3-fill" stroke="none" stroke-width="1" fill="none" fill-rule="evenodd">
        <rect id="path" fill-rule="nonzero" x="0" y="0" width="24" height="24"></rect>
        <path d="M13,1 L13.001,4.062 C16.6258417,4.52027953 19.480243,7.37509228 19.938,11 L23,11 L23,13 L19.938,13.001 C19.4798209,16.6255185 16.6255185,19.4798209 13.001,19.938 L13,23 L11,23 L11,19.938 C7.37509228,19.480243 4.52027953,16.6258417 4.062,13.001 L1,13 L1,11 L4.062,11 C4.5198574,7.37476905 7.37476905,4.5198574 11,4.062 L11,1 L13,1 Z M12,10 C10.8954305,10 10,10.8954305 10,12 C10,13.1045695 10.8954305,14 12,14 C13.1045695,14 14,13.1045695 14,12 C14,10.8954305 13.1045695,10 12,10 Z" id="shape" fill="#001018" fill-rule="nonzero"></path>
    </g>
</svg>