<?xml version="1.0" encoding="UTF-8"?>
<svg width="24px" height="24px" viewBox="0 0 24 24" version="1.1" xmlns="http://www.w3.org/2000/svg" xmlns:xlink="http://www.w3.org/1999/xlink">
    <title>icons/vitamix/design/ruler-line</title>
    <g id="icons/vitamix/design/ruler-line" stroke="none" stroke-width="1" fill="none" fill-rule="evenodd">
        <polygon id="path" points="0 0 24 0 24 24 0 24"></polygon>
        <path d="M6.343,14.621 L3.515,17.45 L7.05,20.985 L20.485,7.55 L16.95,4.015 L14.828,6.136 L16.243,7.55 L14.828,8.964 L13.414,7.55 L11.293,9.672 L13.414,11.792 L12,13.208 L9.879,11.087 L7.757,13.208 L9.172,14.622 L7.757,16.037 L6.343,14.622 L6.343,14.621 Z M17.657,1.893 L22.607,6.843 C22.9973819,7.23349985 22.9973819,7.86650015 22.607,8.257 L7.757,23.107 C7.36650015,23.4973819 6.73349985,23.4973819 6.343,23.107 L1.393,18.157 C1.00261806,17.7665001 1.00261806,17.1334999 1.393,16.743 L16.243,1.893 C16.6334999,1.50261806 17.2665001,1.50261806 17.657,1.893 L17.657,1.893 Z" id="shape" fill="#001018" fill-rule="nonzero"></path>
    </g>
</svg>