<?xml version="1.0" encoding="UTF-8"?>
<svg width="24px" height="24px" viewBox="0 0 24 24" version="1.1" xmlns="http://www.w3.org/2000/svg" xmlns:xlink="http://www.w3.org/1999/xlink">
    <title>icons/vitamix/system/alert-line</title>
    <g id="icons/vitamix/system/alert-line" stroke="none" stroke-width="1" fill="none" fill-rule="evenodd">
        <rect id="path" fill-rule="nonzero" x="0" y="0" width="24" height="24"></rect>
        <path d="M12.3919746,3.499956 L21.9179746,19.999956 C22.0966051,20.3093531 22.0966075,20.6905456 21.9179809,20.999945 C21.7393544,21.3093444 21.4092356,21.499956 21.0519746,21.499956 L1.9999746,21.499956 C1.64271354,21.499956 1.31259484,21.3093444 1.13396825,20.999945 C0.955341649,20.6905456 0.95534407,20.3093531 1.1339746,19.999956 L10.6599746,3.499956 C10.838614,3.19057972 11.1687272,3 11.5259746,3 C11.883222,3 12.2133352,3.19057972 12.3919746,3.499956 Z M3.7319746,19.499956 L19.3199746,19.499956 L11.5259746,5.999956 L3.7319746,19.499956 Z M10.5259746,16.499956 L12.5259746,16.499956 L12.5259746,18.499956 L10.5259746,18.499956 L10.5259746,16.499956 Z M10.5259746,9.499956 L12.5259746,9.499956 L12.5259746,14.499956 L10.5259746,14.499956 L10.5259746,9.499956 Z" id="shape" fill="#001018" fill-rule="nonzero"></path>
    </g>
</svg>