<?xml version="1.0" encoding="UTF-8"?>
<svg width="24px" height="24px" viewBox="0 0 24 24" version="1.1" xmlns="http://www.w3.org/2000/svg" xmlns:xlink="http://www.w3.org/1999/xlink">
    <title>icons/vitamix/system/checkbox-line</title>
    <g id="icons/vitamix/system/checkbox-line" stroke="none" stroke-width="1" fill="none" fill-rule="evenodd">
        <rect id="path" fill-rule="nonzero" x="0" y="0" width="24" height="24"></rect>
        <path d="M4,3 L20,3 C20.5522847,3 21,3.44771525 21,4 L21,20 C21,20.5522847 20.5522847,21 20,21 L4,21 C3.44771525,21 3,20.5522847 3,20 L3,4 C3,3.44771525 3.44771525,3 4,3 Z M5,5 L5,19 L19,19 L19,5 L5,5 Z M11.003,16 L6.76,11.757 L8.174,10.343 L11.003,13.172 L16.659,7.515 L18.074,8.929 L11.003,16 Z" id="shape" fill="#001018" fill-rule="nonzero"></path>
    </g>
</svg>