<?xml version="1.0" encoding="UTF-8"?>
<svg width="24px" height="24px" viewBox="0 0 24 24" version="1.1" xmlns="http://www.w3.org/2000/svg" xmlns:xlink="http://www.w3.org/1999/xlink">
    <title>icons/vitamix/system/checkbox-multiple-fill</title>
    <g id="icons/vitamix/system/checkbox-multiple-fill" stroke="none" stroke-width="1" fill="none" fill-rule="evenodd">
        <rect id="path" fill-rule="nonzero" x="0" y="0" width="24" height="24"></rect>
        <path d="M7.0000005,7 L7.0000005,3 C7.0000005,2.44771525 7.44771624,2 8.0000005,2 L21.0000005,2 C21.5522857,2 22.0000005,2.44771525 22.0000005,3 L22.0000005,16 C22.0000005,16.5522847 21.5522857,17 21.0000005,17 L17.0000005,17 L17.0000005,20.993 C17.0000005,21.549 16.551001,22 15.993001,22 L3.00700099,22 C2.73984663,22.0002657 2.48355783,21.8942567 2.29465108,21.7053499 C2.10574432,21.5164432 1.9997353,21.2601544 2.0000005,20.993 L2.00300099,8.007 C2.00300099,7.451 2.45200099,7 3.01000099,7 L7.0000005,7 Z M9.00000099,7 L15.993001,7 C16.549001,7 17.000001,7.449 17.000001,8.007 L17.000001,15 L20.000001,15 L20.000001,4 L9.00000099,4 L9.00000099,7 Z M8.50300099,18 L14.159001,12.343 L12.745001,10.929 L8.50300099,15.172 L6.38000099,13.05 L4.96600099,14.464 L8.50300099,18 Z" id="shape" fill="#001018" fill-rule="nonzero"></path>
    </g>
</svg>