<?xml version="1.0" encoding="UTF-8"?>
<svg width="24px" height="24px" viewBox="0 0 24 24" version="1.1" xmlns="http://www.w3.org/2000/svg" xmlns:xlink="http://www.w3.org/1999/xlink">
    <title>icons/vitamix/system/external-link-fill</title>
    <g id="icons/vitamix/system/external-link-fill" stroke="none" stroke-width="1" fill="none" fill-rule="evenodd">
        <rect id="path" fill-rule="nonzero" x="0" y="0" width="24" height="24"></rect>
        <path d="M10,6 L10,8 L5,8 L5,19 L16,19 L16,14 L18,14 L18,20 C18,20.5522847 17.5522847,21 17,21 L4,21 C3.44771525,21 3,20.5522847 3,20 L3,7 C3,6.44771525 3.44771525,6 4,6 L10,6 Z M21,3 L21,12 L17.206,8.207 L11.207,14.207 L9.793,12.793 L15.792,6.793 L12,3 L21,3 Z" id="shape" fill="#001018" fill-rule="nonzero"></path>
    </g>
</svg>