<?xml version="1.0" encoding="UTF-8"?>
<svg width="24px" height="24px" viewBox="0 0 24 24" version="1.1" xmlns="http://www.w3.org/2000/svg" xmlns:xlink="http://www.w3.org/1999/xlink">
    <title>icons/vitamix/system/eye-off-fill</title>
    <g id="icons/vitamix/system/eye-off-fill" stroke="none" stroke-width="1" fill="none" fill-rule="evenodd">
        <rect id="path" fill-rule="nonzero" x="0" y="0" width="24" height="24"></rect>
        <path d="M4.52,5.934 L1.393,2.808 L2.808,1.393 L22.607,21.193 L21.192,22.607 L17.882,19.297 C16.1232137,20.4125543 14.0827336,21.0033291 12,21 C6.608,21 2.122,17.12 1.181,12 C1.61102966,9.67071751 2.78262898,7.54289671 4.521,5.934 L4.52,5.934 Z M14.757,16.172 L13.293,14.708 C12.1454593,15.2570544 10.7764012,15.0226599 9.87687063,14.1231294 C8.97734005,13.2235988 8.74294558,11.8545407 9.292,10.707 L7.828,9.243 C6.51619533,11.225269 6.78131177,13.857075 8.46211838,15.5378816 C10.142925,17.2186882 12.774731,17.4838047 14.757,16.172 Z M7.974,3.76 C9.221,3.27 10.58,3 12,3 C17.392,3 21.878,6.88 22.819,12 C22.5125854,13.6656993 21.8238588,15.2375842 20.807,16.592 L16.947,12.732 C17.1795095,11.1657398 16.6563823,9.5819175 15.5367324,8.4622676 C14.4170825,7.34261771 12.8332602,6.81949049 11.267,7.052 L7.974,3.761 L7.974,3.76 Z" id="shape" fill="#001018" fill-rule="nonzero"></path>
    </g>
</svg>