<?xml version="1.0" encoding="UTF-8"?>
<svg width="24px" height="24px" viewBox="0 0 24 24" version="1.1" xmlns="http://www.w3.org/2000/svg" xmlns:xlink="http://www.w3.org/1999/xlink">
    <title>icons/vitamix/system/eye-line</title>
    <g id="icons/vitamix/system/eye-line" stroke="none" stroke-width="1" fill="none" fill-rule="evenodd">
        <rect id="path" fill-rule="nonzero" x="0" y="0" width="24" height="24"></rect>
        <path d="M12,3 C17.392,3 21.878,6.88 22.819,12 C21.879,17.12 17.392,21 12,21 C6.608,21 2.122,17.12 1.181,12 C2.121,6.88 6.608,3 12,3 Z M12,19 C16.2001239,18.9990895 19.8418254,16.0946904 20.777,12 C19.8384161,7.90869843 16.1975813,5.00852825 12,5.00852825 C7.80241875,5.00852825 4.16158394,7.90869843 3.223,12 C4.15817464,16.0946904 7.79987614,18.9990895 12,19 Z M12,16.5 C9.51471863,16.5 7.5,14.4852814 7.5,12 C7.5,9.51471863 9.51471863,7.5 12,7.5 C14.4852814,7.5 16.5,9.51471863 16.5,12 C16.5,14.4852814 14.4852814,16.5 12,16.5 Z M12,14.5 C13.3807119,14.5 14.5,13.3807119 14.5,12 C14.5,10.6192881 13.3807119,9.5 12,9.5 C10.6192881,9.5 9.5,10.6192881 9.5,12 C9.5,13.3807119 10.6192881,14.5 12,14.5 L12,14.5 Z" id="shape" fill="#001018" fill-rule="nonzero"></path>
    </g>
</svg>