<?xml version="1.0" encoding="UTF-8"?>
<svg width="24px" height="24px" viewBox="0 0 24 24" version="1.1" xmlns="http://www.w3.org/2000/svg" xmlns:xlink="http://www.w3.org/1999/xlink">
    <title>icons/vitamix/system/filter-off-line</title>
    <g id="icons/vitamix/system/filter-off-line" stroke="none" stroke-width="1" fill="none" fill-rule="evenodd">
        <rect id="path" fill-rule="nonzero" x="0" y="0" width="24" height="24"></rect>
        <path d="M6.929,1 L21.07,15.142 L19.656,16.556 L15.833,12.734 L15,13.985 L15,22.485 L9,22.485 L9,13.985 L4,6.485 L3,6.485 L3,4.485 L7.585,4.485 L5.515,2.414 L6.929,1 Z M9.585,6.485 L6.404,6.485 L11,13.379 L11,20.485 L13,20.485 L13,13.379 L14.392,11.292 L9.585,6.485 Z M21,4.485 L21,6.485 L20,6.485 L18.085,9.357 L16.643,7.914 L17.596,6.485 L15.213,6.485 L13.213,4.485 L21,4.485 Z" id="shape" fill="#001018" fill-rule="nonzero"></path>
    </g>
</svg>