<?xml version="1.0" encoding="UTF-8"?>
<svg width="24px" height="24px" viewBox="0 0 24 24" version="1.1" xmlns="http://www.w3.org/2000/svg" xmlns:xlink="http://www.w3.org/1999/xlink">
    <title>icons/vitamix/system/list-settings-line</title>
    <g id="icons/vitamix/system/list-settings-line" stroke="none" stroke-width="1" fill="none" fill-rule="evenodd">
        <polygon id="path" points="0 0 24 0 24 24 0 24"></polygon>
        <path d="M2,18 L9,18 L9,20 L2,20 L2,18 Z M2,11 L11,11 L11,13 L2,13 L2,11 Z M2,4 L22,4 L22,6 L2,6 L2,4 Z M20.674,13.025 L21.83,12.634 L22.83,14.366 L21.914,15.171 C22.0292964,15.7176534 22.0292964,16.2823466 21.914,16.829 L22.83,17.634 L21.83,19.366 L20.674,18.975 C20.264,19.345 19.776,19.63 19.239,19.805 L19,21 L17,21 L16.76,19.804 C16.2292618,19.6305579 15.7407626,19.3478143 15.326,18.974 L14.17,19.366 L13.17,17.634 L14.086,16.829 C13.9707036,16.2823466 13.9707036,15.7176534 14.086,15.171 L13.17,14.366 L14.17,12.634 L15.326,13.025 C15.736,12.655 16.224,12.37 16.761,12.195 L17,11 L19,11 L19.24,12.196 C19.776,12.37 20.264,12.656 20.674,13.026 L20.674,13.025 Z M18,18 C19.1045695,18 20,17.1045695 20,16 C20,14.8954305 19.1045695,14 18,14 C16.8954305,14 16,14.8954305 16,16 C16,17.1045695 16.8954305,18 18,18 Z" id="shape" fill="#000000" fill-rule="nonzero"></path>
    </g>
</svg>