<?xml version="1.0" encoding="UTF-8"?>
<svg width="24px" height="24px" viewBox="0 0 24 24" version="1.1" xmlns="http://www.w3.org/2000/svg" xmlns:xlink="http://www.w3.org/1999/xlink">
    <title>icons/vitamix/system/more-2-line</title>
    <g id="icons/vitamix/system/more-2-line" stroke="none" stroke-width="1" fill="none" fill-rule="evenodd">
        <rect id="path" fill-rule="nonzero" x="0" y="0" width="24" height="24"></rect>
        <path d="M12.5,3 C11.675,3 11,3.675 11,4.5 C11,5.325 11.675,6 12.5,6 C13.325,6 14,5.325 14,4.5 C14,3.675 13.325,3 12.5,3 Z M12.5,18 C11.675,18 11,18.675 11,19.5 C11,20.325 11.675,21 12.5,21 C13.325,21 14,20.325 14,19.5 C14,18.675 13.325,18 12.5,18 Z M12.5,10.5 C11.675,10.5 11,11.175 11,12 C11,12.825 11.675,13.5 12.5,13.5 C13.325,13.5 14,12.825 14,12 C14,11.175 13.325,10.5 12.5,10.5 Z" id="shape" fill="#001018" fill-rule="nonzero"></path>
    </g>
</svg>