<?xml version="1.0" encoding="UTF-8"?>
<svg width="24px" height="24px" viewBox="0 0 24 24" version="1.1" xmlns="http://www.w3.org/2000/svg" xmlns:xlink="http://www.w3.org/1999/xlink">
    <title>icons/vitamix/system/phone-fill</title>
    <g id="icons/vitamix/system/phone-fill" stroke="none" stroke-width="1" fill="none" fill-rule="evenodd">
        <g id="phone-fill">
            <polygon id="Path" points="0 0 24 0 24 24 0 24"></polygon>
            <path d="M21,16.42 L21,19.956 C21.000238,20.4812944 20.5940059,20.9172294 20.07,20.954 C19.633,20.984 19.276,20.9999997 19,20.9999997 C10.163,20.9999997 3,13.837 3,4.99999974 C3,4.724 3.015,4.367 3.046,3.93 C3.08277056,3.40599411 3.51870562,2.99976204 4.044,2.99999974 L7.58,2.99999974 C7.83697403,2.99973981 8.05230272,3.19431392 8.078,3.45 C8.101,3.68 8.122,3.863 8.142,4.002 C8.34073424,5.3889232 8.74800281,6.73783177 9.35,8.003 C9.445,8.203 9.383,8.442 9.203,8.57 L7.045,10.112 C8.36445334,13.1864514 10.8145486,15.6365467 13.889,16.956 L15.429,14.802 C15.5589005,14.6203957 15.800089,14.5576782 16.002,14.653 C17.2670215,15.2538656 18.6155795,15.6601187 20.002,15.858 C20.141,15.878 20.324,15.9 20.552,15.922 C20.8072899,15.9481759 21.0013119,16.1633719 21.0010004,16.42 L21,16.42 Z" id="Path" fill="#000000" fill-rule="nonzero"></path>
        </g>
    </g>
</svg>