<?xml version="1.0" encoding="UTF-8"?>
<svg width="24px" height="24px" viewBox="0 0 24 24" version="1.1" xmlns="http://www.w3.org/2000/svg" xmlns:xlink="http://www.w3.org/1999/xlink">
    <title>icons/vitamix/system/question-line</title>
    <g id="icons/vitamix/system/question-line" stroke="none" stroke-width="1" fill="none" fill-rule="evenodd">
        <rect id="path" fill-rule="nonzero" x="0" y="0" width="24" height="24"></rect>
        <path d="M12,22 C6.477,22 2,17.523 2,12 C2,6.477 6.477,2 12,2 C17.523,2 22,6.477 22,12 C22,17.523 17.523,22 12,22 Z M12,20 C16.418278,20 20,16.418278 20,12 C20,7.581722 16.418278,4 12,4 C7.581722,4 4,7.581722 4,12 C4,16.418278 7.581722,20 12,20 Z M11,15 L13,15 L13,17 L11,17 L11,15 Z M13,13.355 L13,14 L11,14 L11,12.5 C11,11.9477153 11.4477153,11.5 12,11.5 C12.7901514,11.4999504 13.4447788,10.8869506 13.4966679,10.0985049 C13.5485571,9.31005909 12.9799134,8.61655344 12.1965836,8.51294995 C11.4132539,8.40934647 10.6838697,8.93117447 10.529,9.706 L8.567,9.313 C8.90348556,7.63124431 10.4087492,6.44085344 12.1227809,6.50102146 C13.8368125,6.56118947 15.2549008,7.85419938 15.4726334,9.5554099 C15.690366,11.2566204 14.6436296,12.8650955 13,13.355 L13,13.355 Z" id="shape" fill="#001018" fill-rule="nonzero"></path>
    </g>
</svg>