<?xml version="1.0" encoding="UTF-8"?>
<svg width="24px" height="24px" viewBox="0 0 24 24" version="1.1" xmlns="http://www.w3.org/2000/svg" xmlns:xlink="http://www.w3.org/1999/xlink">
    <title>icons/vitamix/system/settings-3-fill</title>
    <g id="icons/vitamix/system/settings-3-fill" stroke="none" stroke-width="1" fill="none" fill-rule="evenodd">
        <polygon id="Path" points="0 0 24 0 24 24 0 24"></polygon>
        <path d="M9.954,2.21 C11.3029282,1.92713369 12.6957958,1.92645275 14.045,2.208 C14.2270695,3.40984155 14.9466766,4.46330215 16,5.07 C17.0524937,5.67879808 18.3250307,5.77487334 19.457,5.331 C20.3752833,6.35906062 21.07087,7.56603804 21.5,8.876 C20.5506302,9.63479199 19.9985198,10.7846539 20,12 C20,13.264 20.586,14.391 21.502,15.124 C21.0703315,16.4328778 20.3738822,17.6388993 19.456,18.667 C18.3243209,18.2234498 17.0522288,18.3195193 16,18.928 C14.9475577,19.5344996 14.228415,20.5870831 14.046,21.788 C12.6972097,22.0715259 11.3043421,22.0728878 9.955,21.792 C9.77378709,20.5890535 9.05407214,19.5343305 8,18.927 C6.94735019,18.3185303 5.67481902,18.2228236 4.543,18.667 C3.62459792,17.6386456 2.9290049,16.4313167 2.5,15.121 C3.44882117,14.3626455 4.00087142,13.2136449 4,11.999 C4.00099464,10.7833163 3.44811913,9.63339409 2.498,8.875 C2.92966847,7.56612224 3.62611784,6.36010067 4.544,5.332 C5.67567906,5.77555019 6.94777119,5.67948074 8,5.071 C9.05244233,4.46450036 9.771585,3.41191691 9.954,2.211 L9.954,2.21 Z M12,15 C13.6568542,15 15,13.6568542 15,12 C15,10.3431458 13.6568542,9 12,9 C10.3431458,9 9,10.3431458 9,12 C9,13.6568542 10.3431458,15 12,15 Z" id="Shape" fill="#001018" fill-rule="nonzero"></path>
    </g>
</svg>