<?xml version="1.0" encoding="UTF-8"?>
<svg width="24px" height="24px" viewBox="0 0 24 24" version="1.1" xmlns="http://www.w3.org/2000/svg" xmlns:xlink="http://www.w3.org/1999/xlink">
    <title>icons/vitamix/system/thumb-up-line</title>
    <g id="icons/vitamix/system/thumb-up-line" stroke="none" stroke-width="1" fill="none" fill-rule="evenodd">
        <polygon id="path" points="0 0 24 0 24 24 0 24"></polygon>
        <path d="M14.6,8 L21,8 C22.1045695,8 23,8.8954305 23,10 L23,12.104 C23.0002696,12.3653611 22.949309,12.624241 22.85,12.866 L19.755,20.381 C19.6005883,20.7557119 19.2352801,21.0000001 18.83,21.0000001 L2,21.0000001 C1.44771525,21.0000001 1,20.5522847 1,20 L1,10 C1,9.44771525 1.44771525,9 2,9 L5.482,9 C5.80687659,9.00008311 6.11154621,8.84234107 6.299,8.577 L11.752,0.85 C11.8944491,0.648133008 12.1629836,0.580574484 12.384,0.691 L14.198,1.598 C15.249839,2.12373667 15.7931095,3.31143829 15.503,4.451 L14.6,8 Z M7,10.588 L7,19 L18.16,19 L21,12.104 L21,10 L14.6,10 C13.9827439,9.99991186 13.4001111,9.7148138 13.0212742,9.22748657 C12.6424374,8.74015933 12.5098464,8.10520935 12.662,7.507 L13.565,3.959 C13.6232321,3.7309605 13.5145458,3.49318306 13.304,3.388 L12.643,3.058 L7.933,9.73 C7.683,10.084 7.363,10.374 7,10.588 Z M5,11 L3,11 L3,19 L5,19 L5,11 Z" id="shape" fill="#001018" fill-rule="nonzero"></path>
    </g>
</svg>