<?xml version="1.0" encoding="UTF-8"?>
<svg width="24px" height="24px" viewBox="0 0 24 24" version="1.1" xmlns="http://www.w3.org/2000/svg" xmlns:xlink="http://www.w3.org/1999/xlink">
    <title>icons/vitamix/system/thumb-down-line</title>
    <g id="icons/vitamix/system/thumb-down-line" stroke="none" stroke-width="1" fill="none" fill-rule="evenodd">
        <polygon id="path" points="0 0 24 0 24 24 0 24"></polygon>
        <path d="M9.4,16 L2.99999894,16 C1.8954305,16 0.999998936,15.1045695 0.999998936,14 L0.999998936,11.896 C0.99973038,11.6346389 1.05069098,11.375759 1.15,11.134 L4.246,3.62 C4.39996061,3.24523238 4.76484019,3.00039977 5.17,3 L21.9999989,3 C22.5522847,3 22.9999989,3.44771525 22.9999989,4 L22.9999989,14 C22.9999989,14.5522847 22.5522847,15 21.9999989,15 L18.518,15 C18.1931234,14.9999169 17.8884538,15.1576589 17.701,15.423 L12.248,23.149 C12.1055509,23.350867 11.8370164,23.4184255 11.616,23.308 L9.802,22.4 C8.75016096,21.8742633 8.20689051,20.6865617 8.497,19.547 L9.4,16 Z M17,13.412 L17,5 L5.84,5 L3,11.896 L3,14 L9.4,14 C10.0172561,14.0000881 10.5998889,14.2851862 10.9787258,14.7725134 C11.3575626,15.2598407 11.4901536,15.8947906 11.338,16.493 L10.435,20.041 C10.3767679,20.2690395 10.4854542,20.5068169 10.696,20.612 L11.357,20.942 L16.067,14.27 C16.317,13.916 16.637,13.626 17,13.412 L17,13.412 Z M19,13 L21,13 L21,5 L19,5 L19,13 Z" id="shape" fill="#001018" fill-rule="nonzero"></path>
    </g>
</svg>