<?xml version="1.0" encoding="UTF-8"?>
<svg width="24px" height="24px" viewBox="0 0 24 24" version="1.1" xmlns="http://www.w3.org/2000/svg" xmlns:xlink="http://www.w3.org/1999/xlink">
    <title>icons/vitamix/system/thumb-down-fill</title>
    <g id="icons/vitamix/system/thumb-down-fill" stroke="none" stroke-width="1" fill="none" fill-rule="evenodd">
        <polygon id="path" points="0 0 24 0 24 24 0 24"></polygon>
        <path d="M22,15 L19,15 L19,3 L22,3 C22.5522847,3 23,3.44771525 23,4 L23,14 C23,14.5522847 22.5522847,15 22,15 Z M16.707,16.293 L10.307,22.693 C10.1311346,22.8693711 9.85227788,22.8894112 9.653,22.74 L8.8,22.1 C8.3155691,21.7363321 8.09741727,21.1169861 8.247,20.53 L9.4,16 L2.99999894,16 C1.8954305,16 0.999998936,15.1045695 0.999998936,14 L0.999998936,11.896 C0.99973038,11.6346389 1.05069098,11.375759 1.15,11.134 L4.246,3.62 C4.39996061,3.24523238 4.76484019,3.00039977 5.17,3 L15.9999989,3 C16.5522847,3 16.9999989,3.44771525 16.9999989,4 L16.9999989,15.586 C16.9999989,15.8511948 16.8945494,16.1055073 16.707,16.293 Z" id="shape" fill="#001018" fill-rule="nonzero"></path>
    </g>
</svg>